<svg id="svg" version="1.1" xmlns="http://www.w3.org/2000/svg" xmlns:xlink="http://www.w3.org/1999/xlink" width="400" height="315.55555555555554" viewBox="0, 0, 400,315.55555555555554"><g id="svgg"><path id="path0" d="M160.692 136.626 C 149.828 137.811,144.102 142.209,142.418 150.660 C 141.590 154.813,141.646 159.256,142.659 169.630 C 143.769 181.013,143.322 183.504,139.683 186.214 C 137.033 188.186,130.656 189.841,125.703 189.841 L 124.444 189.841 124.444 196.810 L 124.444 203.779 125.556 203.885 C 126.167 203.943,127.762 204.088,129.101 204.207 C 136.050 204.823,141.195 207.442,142.666 211.111 C 143.373 212.877,143.333 217.110,142.533 225.185 C 139.878 251.974,145.124 257.557,172.963 257.564 L 179.683 257.566 179.683 251.239 L 179.683 244.912 173.810 244.809 C 161.768 244.600,161.253 244.000,161.612 230.582 C 161.931 218.670,161.856 209.675,161.424 207.975 C 159.972 202.257,156.217 199.099,149.048 197.562 C 146.882 197.098,146.596 196.550,148.394 196.312 C 154.889 195.450,159.571 191.883,161.193 186.561 L 161.774 184.656 161.786 177.460 C 161.793 173.503,161.717 166.979,161.617 162.963 C 161.287 149.700,161.760 149.171,174.233 148.855 L 179.683 148.717 179.683 142.507 L 179.683 136.296 171.481 136.320 C 166.239 136.335,162.347 136.445,160.692 136.626 M218.413 142.507 L 218.413 148.717 223.862 148.855 C 232.766 149.080,234.724 149.748,236.026 153.003 C 236.558 154.332,236.592 156.343,236.393 174.709 C 236.285 184.602,236.346 185.249,237.691 188.478 C 239.280 192.295,243.542 195.125,249.365 196.228 C 251.625 196.656,251.341 197.034,248.169 197.821 C 238.000 200.342,235.942 204.215,236.323 220.106 C 236.633 233.033,236.576 239.039,236.131 240.480 C 235.063 243.933,232.368 244.856,223.330 244.864 L 218.406 244.868 218.462 251.164 L 218.519 257.460 224.762 257.524 C 253.060 257.813,258.896 251.435,255.424 224.021 C 254.796 219.066,254.650 213.273,255.116 211.815 C 256.440 207.669,261.564 204.884,269.101 204.216 C 270.497 204.092,272.142 203.943,272.754 203.885 L 273.868 203.778 273.812 196.863 L 273.757 189.947 271.534 189.796 C 262.026 189.147,256.445 186.434,255.095 181.805 C 254.651 180.280,254.815 174.408,255.435 169.630 C 258.940 142.641,253.301 136.296,225.809 136.296 L 218.413 136.296 218.413 142.507 " stroke="none" fill="#fbfbfb" fill-rule="evenodd"></path><path id="path1" d="M124.233 0.245 C 124.233 0.336,124.074 0.349,123.881 0.275 C 123.658 0.189,123.580 0.223,123.669 0.368 C 123.760 0.515,123.649 0.553,123.353 0.476 C 123.043 0.395,122.945 0.434,123.047 0.599 C 123.139 0.748,123.087 0.800,122.914 0.733 C 122.758 0.673,122.424 0.817,122.171 1.053 C 121.918 1.289,121.645 1.481,121.564 1.481 C 121.343 1.481,119.482 3.468,119.533 3.651 C 119.557 3.738,119.476 3.810,119.353 3.810 C 119.229 3.810,119.187 3.905,119.259 4.021 C 119.331 4.138,119.284 4.233,119.153 4.233 C 119.023 4.233,118.976 4.328,119.048 4.444 C 119.120 4.561,119.098 4.656,118.999 4.656 C 118.901 4.656,118.805 4.862,118.786 5.113 C 118.767 5.365,118.641 5.638,118.506 5.722 C 118.364 5.810,118.322 6.062,118.404 6.323 C 118.489 6.590,118.455 6.772,118.321 6.772 C 118.162 6.772,118.095 14.495,118.095 32.804 C 118.095 51.830,118.159 58.836,118.332 58.836 C 118.471 58.836,118.518 59.027,118.446 59.301 C 118.379 59.557,118.428 59.890,118.553 60.042 C 118.679 60.193,118.716 60.317,118.635 60.317 C 118.554 60.317,118.643 60.473,118.833 60.662 C 119.023 60.852,119.129 61.135,119.069 61.292 C 119.009 61.448,119.122 61.671,119.321 61.787 C 119.520 61.903,119.587 62.001,119.471 62.005 C 119.354 62.009,119.545 62.257,119.894 62.556 C 120.243 62.855,120.386 63.030,120.212 62.944 C 120.037 62.859,120.125 63.042,120.407 63.352 C 120.959 63.958,121.169 64.075,120.942 63.651 C 120.864 63.505,121.056 63.672,121.368 64.021 C 121.680 64.370,121.874 64.513,121.799 64.339 C 121.723 64.164,121.812 64.206,121.995 64.432 C 122.178 64.658,122.328 64.770,122.328 64.681 C 122.328 64.593,122.478 64.670,122.661 64.853 C 122.977 65.169,123.383 65.277,123.968 65.201 C 124.114 65.182,124.233 65.268,124.233 65.392 C 124.233 65.526,124.446 65.563,124.762 65.484 C 125.088 65.402,125.291 65.441,125.291 65.586 C 125.291 65.722,125.687 65.820,126.243 65.820 C 126.799 65.820,127.196 65.722,127.196 65.586 C 127.196 65.441,127.399 65.402,127.725 65.484 C 128.044 65.564,128.254 65.526,128.254 65.388 C 128.254 65.263,128.338 65.212,128.441 65.276 C 128.711 65.443,129.947 64.975,129.947 64.706 C 129.947 64.582,130.009 64.542,130.085 64.618 C 130.161 64.693,130.358 64.590,130.524 64.388 C 130.723 64.145,130.778 64.128,130.686 64.339 C 130.609 64.513,130.848 64.323,131.217 63.915 C 131.586 63.508,131.815 63.317,131.727 63.492 C 131.621 63.703,131.721 63.675,132.027 63.406 C 132.537 62.959,132.629 62.756,132.222 62.974 C 132.077 63.052,132.243 62.860,132.593 62.548 C 132.942 62.235,133.085 62.042,132.910 62.117 C 132.698 62.208,132.714 62.154,132.960 61.952 C 133.162 61.787,133.265 61.589,133.189 61.513 C 133.113 61.438,133.168 61.376,133.311 61.376 C 133.453 61.376,133.511 61.280,133.439 61.164 C 133.367 61.048,133.415 60.952,133.545 60.952 C 133.675 60.952,133.723 60.857,133.651 60.741 C 133.579 60.624,133.627 60.529,133.758 60.529 C 133.900 60.529,133.943 60.358,133.862 60.106 C 133.789 59.873,133.817 59.683,133.925 59.683 C 134.033 59.683,134.076 59.444,134.020 59.153 C 133.961 58.845,134.017 58.624,134.155 58.624 C 134.328 58.624,134.392 51.674,134.392 32.804 C 134.392 14.048,134.327 6.984,134.157 6.984 C 134.012 6.984,133.973 6.781,134.055 6.455 C 134.138 6.125,134.098 5.926,133.950 5.926 C 133.819 5.926,133.765 5.786,133.831 5.615 C 133.896 5.444,133.857 5.247,133.744 5.177 C 133.631 5.107,133.593 4.961,133.660 4.853 C 133.727 4.745,133.665 4.656,133.522 4.656 C 133.380 4.656,133.325 4.594,133.401 4.518 C 133.476 4.442,133.373 4.245,133.171 4.079 C 132.969 3.914,132.923 3.838,133.069 3.912 C 133.555 4.159,133.341 3.825,132.360 2.808 C 131.825 2.253,131.301 1.823,131.196 1.852 C 131.091 1.881,131.005 1.808,131.005 1.690 C 131.005 1.411,129.713 0.624,129.486 0.764 C 129.390 0.823,129.312 0.760,129.312 0.625 C 129.312 0.489,129.165 0.435,128.984 0.504 C 128.769 0.586,128.708 0.545,128.807 0.385 C 128.908 0.221,128.841 0.185,128.606 0.275 C 128.412 0.349,128.254 0.328,128.254 0.227 C 128.254 0.126,127.349 0.052,126.243 0.062 C 125.138 0.072,124.233 0.154,124.233 0.245 M160.635 0.240 C 160.635 0.334,160.476 0.349,160.283 0.275 C 160.048 0.185,159.981 0.221,160.082 0.385 C 160.181 0.545,160.120 0.586,159.905 0.504 C 159.714 0.431,159.577 0.491,159.577 0.648 C 159.577 0.796,159.517 0.857,159.443 0.783 C 159.177 0.517,158.342 1.096,156.695 2.689 C 155.585 3.763,155.284 4.184,155.820 3.912 C 155.966 3.838,155.919 3.914,155.718 4.079 C 155.516 4.245,155.413 4.442,155.488 4.518 C 155.564 4.594,155.536 4.656,155.425 4.656 C 155.315 4.656,155.203 4.918,155.177 5.238 C 155.150 5.558,155.034 5.852,154.919 5.891 C 154.804 5.929,154.768 6.191,154.838 6.473 C 154.916 6.783,154.874 6.984,154.732 6.984 C 154.562 6.984,154.497 14.048,154.497 32.804 C 154.497 51.789,154.560 58.624,154.735 58.624 C 154.888 58.624,154.927 58.856,154.844 59.270 C 154.753 59.725,154.787 59.871,154.957 59.766 C 155.121 59.664,155.161 59.763,155.080 60.073 C 155.014 60.324,155.052 60.529,155.165 60.529 C 155.277 60.529,155.310 60.624,155.238 60.741 C 155.166 60.857,155.214 60.952,155.344 60.952 C 155.474 60.952,155.522 61.048,155.450 61.164 C 155.378 61.280,155.436 61.376,155.578 61.376 C 155.721 61.376,155.776 61.438,155.700 61.513 C 155.624 61.589,155.727 61.787,155.929 61.952 C 156.172 62.152,156.189 62.207,155.979 62.114 C 155.804 62.038,155.951 62.245,156.305 62.575 C 156.658 62.905,156.801 63.082,156.622 62.969 C 156.443 62.856,156.527 63.023,156.809 63.340 C 157.358 63.955,157.574 64.081,157.344 63.651 C 157.266 63.505,157.458 63.672,157.770 64.021 C 158.082 64.370,158.276 64.513,158.201 64.339 C 158.125 64.164,158.214 64.206,158.397 64.432 C 158.580 64.658,158.730 64.770,158.730 64.681 C 158.730 64.593,158.880 64.670,159.063 64.853 C 159.379 65.169,159.785 65.277,160.370 65.201 C 160.516 65.182,160.635 65.268,160.635 65.392 C 160.635 65.526,160.848 65.563,161.164 65.484 C 161.490 65.402,161.693 65.441,161.693 65.586 C 161.693 65.722,162.090 65.820,162.646 65.820 C 163.201 65.820,163.598 65.722,163.598 65.586 C 163.598 65.441,163.801 65.402,164.127 65.484 C 164.443 65.563,164.656 65.526,164.656 65.392 C 164.656 65.268,164.775 65.182,164.921 65.201 C 165.506 65.277,165.912 65.169,166.228 64.853 C 166.411 64.670,166.561 64.593,166.561 64.681 C 166.561 64.770,166.711 64.658,166.894 64.432 C 167.077 64.206,167.163 64.164,167.084 64.339 C 167.006 64.513,167.261 64.318,167.651 63.904 C 168.041 63.491,168.218 63.348,168.044 63.587 C 167.788 63.938,167.837 63.925,168.302 63.514 C 168.618 63.235,168.828 62.931,168.771 62.837 C 168.713 62.743,168.861 62.562,169.101 62.434 C 169.340 62.306,169.480 62.111,169.411 62.000 C 169.343 61.889,169.394 61.799,169.524 61.799 C 169.654 61.799,169.702 61.704,169.630 61.587 C 169.558 61.471,169.605 61.376,169.735 61.376 C 169.866 61.376,169.913 61.280,169.841 61.164 C 169.769 61.048,169.817 60.952,169.947 60.952 C 170.077 60.952,170.125 60.857,170.053 60.741 C 169.981 60.624,170.020 60.529,170.140 60.529 C 170.259 60.529,170.302 60.386,170.235 60.212 C 170.168 60.037,170.216 59.894,170.342 59.894 C 170.487 59.894,170.522 59.647,170.438 59.226 C 170.342 58.749,170.374 58.602,170.549 58.710 C 170.734 58.824,170.794 52.496,170.794 32.923 C 170.794 14.080,170.729 6.984,170.559 6.984 C 170.416 6.984,170.375 6.783,170.454 6.468 C 170.525 6.184,170.486 5.892,170.368 5.818 C 170.249 5.745,170.203 5.603,170.265 5.503 C 170.327 5.402,170.279 5.259,170.159 5.185 C 170.039 5.111,169.995 4.961,170.062 4.853 C 170.129 4.745,170.077 4.656,169.947 4.656 C 169.817 4.656,169.769 4.561,169.841 4.444 C 169.913 4.328,169.866 4.233,169.735 4.233 C 169.605 4.233,169.558 4.138,169.630 4.021 C 169.702 3.905,169.660 3.810,169.536 3.810 C 169.413 3.810,169.336 3.728,169.365 3.628 C 169.410 3.474,168.151 2.189,167.137 1.351 C 166.626 0.929,165.985 0.647,165.848 0.783 C 165.774 0.857,165.714 0.796,165.714 0.648 C 165.714 0.491,165.577 0.431,165.386 0.504 C 165.171 0.586,165.110 0.545,165.209 0.385 C 165.310 0.221,165.243 0.185,165.008 0.275 C 164.815 0.349,164.656 0.334,164.656 0.240 C 164.656 0.147,163.751 0.071,162.646 0.071 C 161.540 0.071,160.635 0.147,160.635 0.240 M196.527 0.243 C 196.587 0.340,196.488 0.362,196.307 0.292 C 196.126 0.223,195.979 0.277,195.979 0.413 C 195.979 0.549,195.892 0.606,195.786 0.541 C 195.491 0.359,194.905 0.650,195.060 0.901 C 195.146 1.040,195.094 1.060,194.921 0.953 C 194.747 0.845,194.539 0.926,194.359 1.172 C 194.202 1.387,194.072 1.473,194.069 1.363 C 194.067 1.254,193.868 1.402,193.628 1.693 C 193.387 1.984,193.261 2.079,193.348 1.905 C 193.434 1.730,193.204 1.867,192.837 2.209 C 192.108 2.888,191.954 3.168,192.540 2.751 C 192.743 2.606,192.654 2.727,192.342 3.021 C 192.029 3.314,191.828 3.610,191.896 3.677 C 191.963 3.744,191.862 3.859,191.672 3.933 C 191.481 4.006,191.378 4.151,191.442 4.255 C 191.507 4.359,191.453 4.444,191.323 4.444 C 191.193 4.444,191.140 4.531,191.205 4.637 C 191.365 4.895,191.111 5.527,190.900 5.397 C 190.546 5.179,190.341 58.948,190.694 59.373 C 190.811 59.514,190.841 59.799,190.761 60.008 C 190.653 60.290,190.688 60.342,190.899 60.212 C 191.107 60.084,191.147 60.131,191.048 60.389 C 190.974 60.582,191.011 60.741,191.130 60.741 C 191.250 60.741,191.280 60.850,191.197 60.984 C 191.114 61.119,191.222 61.357,191.437 61.514 C 191.651 61.671,191.747 61.799,191.648 61.799 C 191.550 61.799,191.673 61.975,191.921 62.191 C 192.170 62.406,192.323 62.633,192.262 62.694 C 192.201 62.755,192.598 63.199,193.145 63.680 C 193.692 64.162,194.183 64.512,194.236 64.459 C 194.289 64.406,194.699 64.594,195.146 64.877 C 195.635 65.185,196.105 65.335,196.322 65.252 C 196.581 65.153,196.636 65.190,196.516 65.383 C 196.388 65.591,196.503 65.620,197.011 65.508 C 197.433 65.416,197.672 65.446,197.672 65.592 C 197.672 65.717,198.053 65.820,198.519 65.820 C 198.984 65.820,199.365 65.717,199.365 65.592 C 199.365 65.446,199.604 65.416,200.026 65.508 C 200.534 65.620,200.649 65.591,200.521 65.383 C 200.399 65.187,200.459 65.153,200.739 65.261 C 200.990 65.357,201.410 65.220,201.938 64.871 C 202.385 64.575,202.751 64.385,202.751 64.449 C 202.751 64.513,202.944 64.462,203.181 64.335 C 203.417 64.209,203.545 64.001,203.465 63.872 C 203.386 63.743,203.416 63.697,203.533 63.769 C 203.649 63.841,204.015 63.618,204.346 63.273 C 204.676 62.928,204.867 62.646,204.769 62.646 C 204.671 62.646,204.796 62.468,205.047 62.250 C 205.298 62.033,205.503 61.747,205.503 61.615 C 205.503 61.484,205.595 61.376,205.708 61.376 C 205.820 61.376,205.852 61.217,205.777 61.023 C 205.679 60.766,205.719 60.718,205.926 60.847 C 206.133 60.975,206.173 60.927,206.074 60.670 C 206.000 60.476,206.038 60.317,206.158 60.317 C 206.286 60.317,206.318 60.129,206.235 59.868 C 206.140 59.568,206.169 59.466,206.323 59.561 C 206.490 59.664,206.554 52.189,206.554 32.804 C 206.554 13.419,206.490 5.945,206.323 6.048 C 206.168 6.144,206.142 6.035,206.243 5.714 C 206.357 5.357,206.327 5.280,206.124 5.405 C 205.932 5.524,205.893 5.470,205.989 5.220 C 206.063 5.026,206.026 4.868,205.907 4.868 C 205.787 4.868,205.745 4.778,205.812 4.669 C 205.880 4.559,205.725 4.274,205.467 4.034 C 205.210 3.794,205.089 3.595,205.198 3.591 C 205.307 3.588,205.228 3.487,205.022 3.367 C 204.816 3.247,204.693 3.074,204.750 2.982 C 204.806 2.891,204.556 2.540,204.193 2.202 C 203.829 1.864,203.603 1.730,203.689 1.905 C 203.776 2.079,203.650 1.984,203.409 1.693 C 203.169 1.402,202.970 1.254,202.968 1.363 C 202.965 1.473,202.835 1.387,202.678 1.172 C 202.498 0.926,202.290 0.845,202.116 0.953 C 201.943 1.060,201.891 1.040,201.977 0.901 C 202.132 0.650,201.546 0.359,201.251 0.541 C 201.145 0.606,201.058 0.562,201.058 0.442 C 201.058 0.323,200.900 0.286,200.706 0.360 C 200.495 0.441,200.407 0.410,200.486 0.281 C 200.571 0.143,199.878 0.068,198.519 0.068 C 197.364 0.068,196.468 0.147,196.527 0.243 M232.916 0.222 C 232.969 0.306,232.893 0.371,232.749 0.366 C 232.070 0.342,231.732 0.442,231.850 0.632 C 231.927 0.757,231.832 0.785,231.616 0.702 C 231.351 0.600,231.300 0.638,231.427 0.843 C 231.549 1.041,231.519 1.074,231.323 0.953 C 231.149 0.845,230.941 0.926,230.762 1.172 C 230.605 1.387,230.474 1.473,230.471 1.363 C 230.469 1.254,230.270 1.402,230.030 1.693 C 229.790 1.984,229.664 2.079,229.750 1.905 C 229.836 1.730,229.606 1.867,229.239 2.209 C 228.531 2.868,228.403 3.073,228.836 2.854 C 228.981 2.780,228.910 2.874,228.677 3.062 C 228.444 3.250,228.254 3.479,228.254 3.569 C 228.254 3.660,228.087 3.901,227.884 4.104 C 227.479 4.508,227.390 4.757,227.722 4.552 C 227.842 4.478,227.878 4.562,227.806 4.750 C 227.737 4.930,227.579 5.014,227.455 4.938 C 227.317 4.852,227.279 4.926,227.357 5.130 C 227.427 5.312,227.424 5.521,227.351 5.594 C 227.278 5.667,227.169 5.890,227.109 6.091 C 226.867 6.891,226.874 59.105,227.116 59.396 C 227.247 59.554,227.282 59.683,227.196 59.683 C 227.109 59.683,227.153 59.821,227.294 59.991 C 227.435 60.160,227.488 60.398,227.413 60.520 C 227.338 60.641,227.383 60.741,227.513 60.741 C 227.643 60.741,227.691 60.836,227.619 60.952 C 227.547 61.069,227.595 61.164,227.725 61.164 C 227.855 61.164,227.909 61.249,227.844 61.353 C 227.780 61.458,227.870 61.598,228.044 61.664 C 228.217 61.731,228.360 61.932,228.360 62.110 C 228.360 62.288,228.461 62.434,228.584 62.434 C 228.707 62.434,228.754 62.521,228.689 62.627 C 228.538 62.871,230.463 64.583,230.714 64.428 C 230.816 64.365,230.899 64.397,230.899 64.499 C 230.899 64.803,232.346 65.397,232.729 65.250 C 232.983 65.152,233.037 65.191,232.918 65.383 C 232.790 65.591,232.905 65.620,233.413 65.508 C 233.835 65.416,234.074 65.446,234.074 65.592 C 234.074 65.721,234.486 65.820,235.026 65.820 C 235.582 65.820,235.979 65.722,235.979 65.586 C 235.979 65.441,236.182 65.402,236.508 65.484 C 236.827 65.564,237.037 65.526,237.037 65.388 C 237.037 65.263,237.130 65.218,237.244 65.288 C 237.458 65.421,239.141 64.603,239.414 64.233 C 239.516 64.095,239.571 64.094,239.573 64.231 C 239.575 64.346,239.819 64.179,240.114 63.860 C 240.410 63.541,240.749 63.280,240.868 63.280 C 240.986 63.280,241.027 63.190,240.959 63.079 C 240.891 62.969,241.031 62.774,241.270 62.646 C 241.509 62.517,241.655 62.332,241.594 62.234 C 241.534 62.135,241.632 61.998,241.814 61.928 C 241.995 61.859,242.084 61.706,242.012 61.589 C 241.939 61.472,241.978 61.376,242.097 61.376 C 242.217 61.376,242.254 61.217,242.180 61.023 C 242.089 60.788,242.126 60.722,242.290 60.823 C 242.450 60.922,242.491 60.861,242.409 60.646 C 242.339 60.465,242.379 60.317,242.497 60.317 C 242.615 60.317,242.658 60.112,242.592 59.861 C 242.511 59.551,242.551 59.453,242.715 59.554 C 242.886 59.660,242.917 59.507,242.821 59.025 C 242.724 58.539,242.755 58.390,242.930 58.498 C 243.115 58.612,243.175 52.336,243.175 32.923 C 243.175 14.650,243.108 7.196,242.946 7.196 C 242.800 7.196,242.770 6.956,242.863 6.534 C 242.974 6.030,242.945 5.912,242.741 6.038 C 242.546 6.159,242.505 6.080,242.592 5.747 C 242.670 5.452,242.631 5.340,242.484 5.431 C 242.340 5.520,242.306 5.443,242.391 5.220 C 242.466 5.026,242.434 4.868,242.321 4.868 C 242.209 4.868,242.116 4.677,242.116 4.444 C 242.116 4.212,242.021 4.021,241.905 4.021 C 241.788 4.021,241.693 3.888,241.693 3.726 C 241.693 3.564,241.544 3.374,241.362 3.305 C 241.180 3.235,241.082 3.096,241.143 2.997 C 241.205 2.897,240.958 2.540,240.595 2.202 C 240.232 1.864,240.005 1.730,240.091 1.905 C 240.178 2.079,240.052 1.984,239.811 1.693 C 239.571 1.402,239.372 1.254,239.370 1.363 C 239.367 1.473,239.237 1.387,239.080 1.172 C 238.900 0.926,238.692 0.845,238.518 0.953 C 238.345 1.060,238.293 1.040,238.379 0.901 C 238.534 0.650,237.948 0.359,237.653 0.541 C 237.547 0.606,237.460 0.562,237.460 0.442 C 237.460 0.323,237.302 0.286,237.108 0.360 C 236.897 0.441,236.809 0.410,236.888 0.281 C 236.974 0.143,236.280 0.068,234.921 0.068 C 233.766 0.068,232.864 0.137,232.916 0.222 M269.418 0.264 C 269.418 0.365,269.320 0.388,269.201 0.314 C 268.936 0.150,267.090 1.014,267.090 1.301 C 267.090 1.414,266.999 1.451,266.889 1.382 C 266.778 1.314,266.580 1.459,266.448 1.705 C 266.317 1.951,266.154 2.098,266.087 2.031 C 265.912 1.856,265.380 2.341,265.512 2.554 C 265.572 2.652,265.378 2.893,265.080 3.088 C 264.781 3.284,264.580 3.486,264.632 3.538 C 264.684 3.591,264.537 3.823,264.305 4.055 C 264.073 4.287,263.935 4.613,263.998 4.778 C 264.062 4.944,264.016 5.079,263.896 5.079 C 263.777 5.079,263.734 5.168,263.800 5.276 C 263.867 5.385,263.830 5.531,263.716 5.601 C 263.603 5.671,263.561 5.858,263.622 6.017 C 263.683 6.176,263.631 6.369,263.506 6.446 C 263.348 6.544,263.280 14.438,263.280 32.804 C 263.280 51.170,263.348 59.064,263.506 59.162 C 263.631 59.239,263.683 59.432,263.622 59.591 C 263.561 59.750,263.603 59.938,263.716 60.008 C 263.830 60.078,263.867 60.224,263.800 60.332 C 263.734 60.440,263.788 60.529,263.920 60.529 C 264.053 60.529,264.122 60.648,264.073 60.794 C 264.024 60.939,264.135 61.184,264.320 61.338 C 264.505 61.493,264.528 61.553,264.370 61.472 C 264.141 61.353,264.131 61.412,264.322 61.769 C 264.453 62.013,264.751 62.315,264.984 62.440 C 265.218 62.565,265.361 62.743,265.303 62.837 C 265.246 62.931,265.449 63.235,265.755 63.514 C 266.061 63.793,266.238 63.878,266.148 63.704 C 266.059 63.529,266.241 63.672,266.553 64.021 C 266.865 64.370,267.059 64.513,266.984 64.339 C 266.875 64.087,266.905 64.091,267.127 64.359 C 267.569 64.891,268.720 65.408,269.122 65.254 C 269.384 65.153,269.440 65.189,269.320 65.383 C 269.192 65.591,269.307 65.620,269.815 65.508 C 270.237 65.416,270.476 65.446,270.476 65.592 C 270.476 65.721,270.888 65.820,271.429 65.820 C 271.984 65.820,272.381 65.722,272.381 65.586 C 272.381 65.441,272.584 65.402,272.910 65.484 C 273.201 65.557,273.439 65.543,273.439 65.454 C 273.439 65.364,273.690 65.276,273.996 65.259 C 274.302 65.241,274.634 65.098,274.733 64.941 C 274.833 64.784,274.917 64.751,274.921 64.868 C 274.925 65.009,274.979 65.009,275.083 64.868 C 275.404 64.430,276.080 63.985,275.886 64.339 C 275.790 64.513,275.991 64.370,276.334 64.021 C 276.676 63.672,277.141 63.264,277.367 63.114 C 277.593 62.964,277.635 62.903,277.460 62.978 C 277.286 63.054,277.429 62.860,277.778 62.548 C 278.127 62.235,278.270 62.042,278.095 62.117 C 277.883 62.208,277.900 62.154,278.145 61.952 C 278.347 61.787,278.450 61.589,278.374 61.513 C 278.298 61.438,278.353 61.376,278.496 61.376 C 278.638 61.376,278.696 61.280,278.624 61.164 C 278.552 61.048,278.591 60.952,278.711 60.952 C 278.831 60.952,278.868 60.794,278.793 60.600 C 278.697 60.350,278.736 60.296,278.929 60.415 C 279.129 60.539,279.162 60.466,279.056 60.132 C 278.978 59.885,279.002 59.683,279.110 59.683 C 279.218 59.683,279.261 59.444,279.205 59.153 C 279.146 58.845,279.202 58.624,279.340 58.624 C 279.513 58.624,279.577 51.702,279.577 32.910 C 279.577 14.004,279.514 7.196,279.339 7.196 C 279.186 7.196,279.147 6.964,279.230 6.550 C 279.321 6.095,279.287 5.949,279.117 6.054 C 278.953 6.156,278.913 6.057,278.994 5.747 C 279.060 5.496,279.017 5.291,278.899 5.291 C 278.781 5.291,278.740 5.148,278.807 4.974 C 278.874 4.799,278.831 4.656,278.711 4.656 C 278.591 4.656,278.546 4.571,278.611 4.467 C 278.675 4.362,278.585 4.222,278.410 4.155 C 278.235 4.088,278.116 3.942,278.146 3.830 C 278.176 3.719,278.011 3.471,277.778 3.280 C 277.545 3.088,277.497 3.001,277.672 3.085 C 277.847 3.169,277.665 2.894,277.268 2.474 C 276.871 2.054,276.477 1.753,276.391 1.806 C 276.305 1.859,276.175 1.746,276.102 1.556 C 276.029 1.365,275.916 1.263,275.850 1.328 C 275.785 1.393,275.546 1.260,275.319 1.033 C 275.091 0.805,274.813 0.676,274.701 0.746 C 274.589 0.815,274.497 0.760,274.497 0.625 C 274.497 0.489,274.350 0.435,274.169 0.504 C 273.963 0.583,273.894 0.544,273.984 0.398 C 274.081 0.241,273.973 0.215,273.651 0.317 C 273.364 0.409,273.224 0.388,273.300 0.265 C 273.377 0.141,272.651 0.065,271.422 0.071 C 270.320 0.075,269.418 0.162,269.418 0.264 M114.458 87.517 C 114.318 87.658,112.667 87.880,111.905 87.862 C 111.585 87.854,111.323 87.946,111.323 88.065 C 111.323 88.186,111.135 88.223,110.899 88.148 C 110.667 88.074,110.476 88.107,110.476 88.220 C 110.476 88.333,110.271 88.372,110.020 88.307 C 109.727 88.230,109.613 88.268,109.703 88.413 C 109.792 88.557,109.678 88.595,109.385 88.518 C 109.075 88.437,108.976 88.477,109.078 88.641 C 109.176 88.799,109.112 88.840,108.897 88.757 C 108.715 88.687,108.439 88.735,108.285 88.863 C 108.130 88.992,107.941 89.034,107.864 88.958 C 107.788 88.881,107.725 88.926,107.725 89.059 C 107.725 89.191,107.582 89.244,107.407 89.177 C 107.233 89.110,107.090 89.166,107.090 89.302 C 107.090 89.438,106.995 89.490,106.878 89.418 C 106.762 89.346,106.667 89.394,106.667 89.524 C 106.667 89.654,106.571 89.702,106.455 89.630 C 106.339 89.558,106.243 89.597,106.243 89.716 C 106.243 89.836,106.113 89.884,105.953 89.822 C 105.794 89.761,105.519 89.855,105.343 90.031 C 105.168 90.206,104.965 90.291,104.893 90.219 C 104.821 90.147,104.762 90.215,104.762 90.370 C 104.762 90.526,104.700 90.591,104.624 90.515 C 104.548 90.439,104.351 90.542,104.185 90.744 C 104.010 90.957,103.954 90.978,104.050 90.794 C 104.262 90.389,103.049 91.139,102.791 91.572 C 102.697 91.731,102.530 91.806,102.421 91.738 C 102.312 91.670,102.222 91.722,102.222 91.852 C 102.222 91.982,102.126 92.029,102.009 91.957 C 101.892 91.884,101.739 91.974,101.669 92.156 C 101.599 92.338,101.430 92.487,101.294 92.487 C 101.157 92.487,100.912 92.672,100.749 92.899 C 100.586 93.125,100.383 93.268,100.298 93.216 C 100.214 93.163,99.898 93.414,99.596 93.772 C 99.294 94.131,99.048 94.348,99.048 94.256 C 99.048 94.163,98.481 94.648,97.788 95.334 C 97.095 96.020,96.570 96.649,96.621 96.732 C 96.673 96.815,96.506 96.938,96.250 97.005 C 95.995 97.071,95.852 97.193,95.934 97.274 C 96.015 97.356,95.890 97.556,95.656 97.720 C 95.422 97.884,95.283 98.102,95.346 98.205 C 95.410 98.308,95.266 98.496,95.026 98.624 C 94.787 98.752,94.641 98.938,94.702 99.036 C 94.763 99.134,94.664 99.272,94.483 99.341 C 94.301 99.411,94.212 99.564,94.285 99.681 C 94.357 99.798,94.310 99.894,94.180 99.894 C 94.050 99.894,94.003 99.990,94.075 100.107 C 94.147 100.225,94.058 100.378,93.876 100.447 C 93.694 100.517,93.545 100.758,93.545 100.982 C 93.545 101.206,93.403 101.444,93.229 101.510 C 93.055 101.577,92.965 101.717,93.030 101.821 C 93.094 101.925,93.040 102.011,92.910 102.011 C 92.780 102.011,92.732 102.106,92.804 102.222 C 92.876 102.339,92.829 102.434,92.698 102.434 C 92.568 102.434,92.521 102.529,92.593 102.646 C 92.665 102.762,92.617 102.857,92.487 102.857 C 92.357 102.857,92.309 102.952,92.381 103.069 C 92.453 103.185,92.405 103.280,92.275 103.280 C 92.145 103.280,92.092 103.367,92.158 103.473 C 92.341 103.770,92.048 104.354,91.794 104.197 C 91.652 104.110,91.619 104.189,91.703 104.410 C 91.778 104.604,91.736 104.762,91.611 104.762 C 91.486 104.762,91.438 104.905,91.505 105.079 C 91.572 105.254,91.529 105.397,91.409 105.397 C 91.290 105.397,91.247 105.485,91.314 105.594 C 91.381 105.702,91.337 105.852,91.217 105.926 C 91.097 106.000,91.049 106.143,91.111 106.243 C 91.173 106.344,91.136 106.480,91.029 106.546 C 90.921 106.613,90.887 106.872,90.953 107.123 C 91.040 107.455,90.999 107.534,90.804 107.414 C 90.607 107.292,90.574 107.367,90.679 107.698 C 90.768 107.977,90.731 108.148,90.582 108.148 C 90.438 108.148,90.396 108.318,90.476 108.571 C 90.559 108.831,90.514 108.995,90.362 108.995 C 90.202 108.995,90.160 109.184,90.246 109.524 C 90.319 109.815,90.294 110.053,90.192 110.053 C 89.871 110.053,89.871 109.932,89.881 196.931 C 89.892 285.480,89.885 283.598,90.190 283.598 C 90.294 283.598,90.315 283.850,90.238 284.159 C 90.130 284.586,90.162 284.679,90.370 284.550 C 90.580 284.421,90.610 284.517,90.499 284.960 C 90.396 285.369,90.424 285.494,90.596 285.388 C 90.764 285.284,90.795 285.377,90.696 285.688 C 90.606 285.972,90.645 286.138,90.802 286.138 C 90.947 286.138,90.994 286.284,90.915 286.491 C 90.840 286.685,90.875 286.904,90.993 286.976 C 91.110 287.049,91.249 287.342,91.302 287.628 C 91.354 287.914,91.415 288.196,91.437 288.254 C 91.502 288.424,91.573 288.762,91.608 289.060 C 91.626 289.212,91.748 289.271,91.879 289.189 C 92.024 289.100,92.080 289.157,92.021 289.334 C 91.967 289.494,92.050 289.753,92.205 289.907 C 92.360 290.062,92.487 290.373,92.487 290.597 C 92.487 290.822,92.588 291.005,92.711 291.005 C 92.834 291.005,92.876 291.101,92.804 291.217 C 92.732 291.333,92.780 291.429,92.910 291.429 C 93.040 291.429,93.088 291.524,93.016 291.640 C 92.944 291.757,92.992 291.852,93.122 291.852 C 93.252 291.852,93.299 291.947,93.228 292.063 C 93.156 292.180,93.213 292.275,93.356 292.275 C 93.499 292.275,93.554 292.337,93.478 292.413 C 93.402 292.489,93.505 292.686,93.707 292.852 C 93.952 293.053,93.968 293.107,93.757 293.016 C 93.582 292.940,93.630 293.033,93.862 293.221 C 94.095 293.409,94.298 293.654,94.312 293.766 C 94.327 293.877,94.351 294.052,94.365 294.154 C 94.380 294.257,94.786 294.747,95.268 295.243 C 95.750 295.740,96.012 296.075,95.850 295.989 C 95.688 295.902,95.937 296.170,96.402 296.585 C 96.868 296.999,97.159 297.342,97.048 297.347 C 96.938 297.351,97.168 297.684,97.558 298.087 C 97.949 298.490,98.339 298.776,98.426 298.722 C 98.513 298.668,98.886 298.982,99.255 299.418 C 99.624 299.855,99.853 300.069,99.763 299.894 C 99.674 299.720,99.947 299.942,100.372 300.389 C 100.796 300.836,101.243 301.140,101.365 301.065 C 101.487 300.989,101.587 301.022,101.587 301.137 C 101.587 301.252,101.890 301.563,102.260 301.826 C 102.655 302.107,102.867 302.179,102.774 301.999 C 102.686 301.831,102.768 301.884,102.956 302.116 C 103.145 302.349,103.339 302.492,103.388 302.434 C 103.438 302.376,103.676 302.498,103.918 302.705 C 104.160 302.912,104.464 303.016,104.593 302.937 C 104.745 302.842,104.767 302.890,104.654 303.072 C 104.527 303.277,104.578 303.315,104.844 303.213 C 105.060 303.130,105.155 303.159,105.078 303.283 C 105.007 303.398,105.049 303.504,105.173 303.519 C 105.618 303.571,105.729 303.613,106.714 304.094 C 107.264 304.363,107.826 304.513,107.963 304.428 C 108.128 304.326,108.157 304.365,108.049 304.540 C 107.926 304.739,108.006 304.769,108.360 304.656 C 108.710 304.545,108.793 304.574,108.674 304.767 C 108.569 304.937,108.615 304.993,108.807 304.926 C 108.968 304.869,109.339 304.913,109.630 305.023 C 110.460 305.337,110.959 305.453,111.587 305.479 C 111.907 305.492,112.169 305.582,112.169 305.678 C 112.169 305.775,112.455 305.791,112.804 305.714 C 113.202 305.627,113.439 305.660,113.439 305.802 C 113.439 305.963,138.279 306.029,199.048 306.029 C 259.816 306.029,284.656 305.963,284.656 305.802 C 284.656 305.660,284.894 305.627,285.291 305.714 C 285.696 305.803,285.926 305.769,285.926 305.621 C 285.926 305.479,286.131 305.440,286.455 305.522 C 286.746 305.595,286.984 305.573,286.984 305.473 C 286.984 305.373,287.199 305.271,287.460 305.246 C 288.211 305.174,288.654 305.067,288.798 304.924 C 288.871 304.851,289.064 304.842,289.227 304.905 C 289.390 304.968,289.524 304.916,289.524 304.791 C 289.524 304.666,289.682 304.624,289.876 304.699 C 290.133 304.797,290.181 304.757,290.053 304.550 C 289.926 304.345,289.972 304.303,290.219 304.398 C 290.406 304.470,290.985 304.303,291.504 304.026 C 292.024 303.750,292.505 303.581,292.573 303.649 C 292.642 303.718,292.698 303.647,292.698 303.492 C 292.698 303.337,292.758 303.270,292.831 303.343 C 293.005 303.516,294.237 302.883,294.457 302.507 C 294.552 302.345,294.719 302.269,294.828 302.336 C 294.937 302.404,295.026 302.352,295.026 302.222 C 295.026 302.092,295.122 302.044,295.238 302.116 C 295.354 302.188,295.450 302.141,295.450 302.011 C 295.450 301.880,295.546 301.833,295.663 301.906 C 295.780 301.978,295.933 301.889,296.003 301.707 C 296.073 301.525,296.256 301.376,296.410 301.376 C 296.564 301.376,297.030 301.055,297.445 300.663 C 297.861 300.271,298.201 300.006,298.201 300.075 C 298.201 300.144,298.606 299.768,299.101 299.239 C 299.595 298.711,299.812 298.523,299.581 298.822 C 299.351 299.121,299.708 298.845,300.375 298.208 C 301.569 297.069,301.956 296.580,301.203 297.163 C 300.992 297.327,301.158 297.141,301.573 296.752 C 301.988 296.362,302.302 295.950,302.270 295.836 C 302.238 295.723,302.305 295.688,302.420 295.758 C 302.534 295.829,302.787 295.574,302.983 295.192 C 303.178 294.810,303.470 294.420,303.631 294.326 C 303.792 294.231,303.875 294.074,303.815 293.977 C 303.755 293.880,303.854 293.744,304.036 293.674 C 304.217 293.605,304.306 293.452,304.234 293.335 C 304.161 293.218,304.208 293.122,304.339 293.122 C 304.469 293.122,304.516 293.026,304.444 292.910 C 304.373 292.794,304.420 292.698,304.550 292.698 C 304.680 292.698,304.728 292.603,304.655 292.485 C 304.583 292.368,304.672 292.215,304.853 292.146 C 305.034 292.076,305.130 291.934,305.066 291.830 C 305.001 291.725,305.055 291.640,305.185 291.640 C 305.315 291.640,305.363 291.545,305.291 291.429 C 305.219 291.312,305.267 291.217,305.397 291.217 C 305.527 291.217,305.575 291.122,305.503 291.005 C 305.431 290.889,305.478 290.794,305.608 290.794 C 305.739 290.794,305.786 290.698,305.714 290.582 C 305.642 290.466,305.664 290.370,305.763 290.370 C 305.861 290.370,305.958 290.157,305.977 289.897 C 305.997 289.637,306.113 289.391,306.235 289.350 C 306.358 289.309,306.404 289.189,306.338 289.082 C 306.272 288.976,306.316 288.889,306.436 288.889 C 306.556 288.889,306.593 288.730,306.518 288.537 C 306.422 288.286,306.461 288.233,306.653 288.352 C 306.856 288.477,306.886 288.399,306.772 288.042 C 306.659 287.685,306.689 287.608,306.892 287.733 C 307.080 287.850,307.124 287.800,307.035 287.569 C 306.965 287.386,306.972 287.172,307.052 287.093 C 307.131 287.014,307.208 286.862,307.222 286.755 C 307.237 286.648,307.268 286.537,307.291 286.508 C 307.399 286.375,307.555 285.563,307.556 285.132 C 307.557 284.870,307.653 284.656,307.770 284.656 C 307.891 284.656,307.925 284.428,307.850 284.127 C 307.775 283.828,307.808 283.598,307.927 283.598 C 308.048 283.598,308.084 283.328,308.011 282.963 C 307.931 282.564,307.970 282.328,308.118 282.328 C 308.272 282.328,308.309 282.014,308.225 281.404 C 308.145 280.820,308.186 280.425,308.335 280.333 C 308.676 280.122,308.674 113.228,308.333 113.228 C 308.168 113.228,308.137 112.897,308.234 112.169 C 308.332 111.427,308.301 111.111,308.129 111.111 C 307.969 111.111,307.928 110.890,308.011 110.476 C 308.084 110.111,308.048 109.841,307.927 109.841 C 307.805 109.841,307.776 109.605,307.858 109.281 C 307.963 108.861,307.931 108.761,307.733 108.884 C 307.540 109.003,307.505 108.929,307.606 108.613 C 307.682 108.375,307.605 107.847,307.435 107.440 C 307.265 107.034,307.181 106.646,307.249 106.578 C 307.317 106.510,307.255 106.455,307.111 106.455 C 306.941 106.455,306.900 106.298,306.993 106.005 C 307.098 105.672,307.065 105.599,306.865 105.723 C 306.673 105.841,306.634 105.788,306.730 105.537 C 306.804 105.344,306.783 105.185,306.683 105.185 C 306.582 105.185,306.444 105.037,306.374 104.857 C 306.303 104.670,306.338 104.584,306.455 104.656 C 306.572 104.729,306.607 104.642,306.536 104.455 C 306.466 104.275,306.319 104.127,306.208 104.127 C 306.097 104.127,306.066 104.032,306.138 103.915 C 306.210 103.799,306.162 103.704,306.032 103.704 C 305.902 103.704,305.854 103.608,305.926 103.492 C 305.998 103.376,305.950 103.280,305.820 103.280 C 305.690 103.280,305.642 103.185,305.714 103.069 C 305.786 102.952,305.747 102.857,305.628 102.857 C 305.508 102.857,305.462 102.722,305.526 102.556 C 305.589 102.390,305.451 102.065,305.219 101.833 C 304.987 101.601,304.853 101.355,304.921 101.287 C 304.989 101.220,304.933 101.164,304.797 101.164 C 304.661 101.164,304.550 101.021,304.550 100.847 C 304.550 100.672,304.455 100.529,304.339 100.529 C 304.222 100.529,304.138 100.458,304.152 100.370 C 304.216 99.965,304.109 99.669,303.938 99.775 C 303.771 99.878,303.456 99.422,303.405 99.004 C 303.394 98.922,303.196 98.700,302.963 98.512 C 302.730 98.324,302.683 98.231,302.857 98.306 C 303.032 98.382,302.889 98.188,302.540 97.876 C 302.190 97.563,302.048 97.373,302.222 97.452 C 302.397 97.531,302.159 97.246,301.693 96.819 C 301.228 96.392,300.873 95.950,300.905 95.836 C 300.937 95.723,300.874 95.685,300.766 95.751 C 300.658 95.818,300.028 95.278,299.367 94.550 C 298.705 93.823,298.227 93.370,298.304 93.545 C 298.381 93.720,298.287 93.672,298.096 93.439 C 297.905 93.206,297.662 93.039,297.558 93.067 C 297.453 93.095,297.264 92.925,297.139 92.690 C 297.013 92.455,296.829 92.313,296.731 92.374 C 296.633 92.435,296.492 92.328,296.419 92.138 C 296.346 91.947,296.231 91.847,296.163 91.915 C 296.095 91.982,295.841 91.853,295.599 91.627 C 295.357 91.402,294.983 91.217,294.768 91.217 C 294.554 91.217,294.324 91.075,294.257 90.901 C 294.190 90.727,294.050 90.637,293.946 90.702 C 293.842 90.766,293.757 90.712,293.757 90.582 C 293.757 90.452,293.661 90.404,293.545 90.476 C 293.429 90.548,293.333 90.521,293.333 90.417 C 293.333 90.140,292.283 89.705,292.015 89.871 C 291.887 89.950,291.847 89.915,291.924 89.790 C 292.079 89.539,291.493 89.248,291.198 89.430 C 291.092 89.495,291.005 89.438,291.005 89.302 C 291.005 89.166,290.862 89.110,290.688 89.177 C 290.513 89.244,290.370 89.207,290.370 89.094 C 290.370 88.981,290.299 88.904,290.212 88.923 C 290.124 88.942,289.775 88.843,289.434 88.703 C 289.094 88.563,288.685 88.499,288.524 88.560 C 288.343 88.630,288.289 88.581,288.382 88.430 C 288.484 88.265,288.386 88.225,288.075 88.307 C 287.824 88.372,287.619 88.333,287.619 88.220 C 287.619 88.107,287.429 88.074,287.196 88.148 C 286.960 88.223,286.772 88.186,286.772 88.065 C 286.772 87.946,286.511 87.853,286.190 87.860 C 285.870 87.867,285.323 87.797,284.974 87.705 C 284.284 87.524,114.638 87.337,114.458 87.517 M9.312 115.790 C 9.312 115.935,9.109 115.974,8.783 115.892 C 8.464 115.812,8.254 115.850,8.254 115.987 C 8.254 116.113,8.162 116.159,8.050 116.090 C 7.938 116.020,7.452 116.213,6.969 116.518 C 6.486 116.822,6.166 116.945,6.257 116.790 C 6.445 116.469,5.734 117.036,4.712 118.021 C 4.332 118.388,4.021 118.796,4.021 118.927 C 4.021 119.059,3.879 119.221,3.705 119.288 C 3.531 119.355,3.435 119.485,3.492 119.577 C 3.549 119.669,3.443 119.802,3.257 119.874 C 3.058 119.950,2.971 120.138,3.044 120.330 C 3.126 120.543,3.084 120.604,2.925 120.505 C 2.761 120.404,2.724 120.471,2.815 120.706 C 2.889 120.900,2.851 121.058,2.730 121.058 C 2.603 121.058,2.571 121.247,2.654 121.508 C 2.743 121.787,2.716 121.908,2.584 121.826 C 2.447 121.742,2.378 122.409,2.390 123.705 C 2.400 124.810,2.482 125.714,2.573 125.714 C 2.664 125.714,2.683 125.857,2.616 126.032 C 2.549 126.206,2.605 126.349,2.741 126.349 C 2.877 126.349,2.934 126.436,2.869 126.542 C 2.685 126.839,2.979 127.423,3.233 127.266 C 3.372 127.180,3.409 127.255,3.330 127.461 C 3.256 127.654,3.331 127.845,3.507 127.913 C 3.676 127.978,3.789 128.122,3.759 128.233 C 3.728 128.345,3.894 128.592,4.127 128.784 C 4.360 128.975,4.407 129.062,4.233 128.976 C 4.058 128.891,4.146 129.074,4.428 129.384 C 4.983 129.992,5.184 130.103,4.970 129.683 C 4.896 129.537,5.046 129.656,5.303 129.947 C 5.560 130.238,5.853 130.452,5.954 130.423 C 6.055 130.394,6.138 130.471,6.138 130.595 C 6.138 130.718,6.223 130.766,6.327 130.702 C 6.431 130.637,6.573 130.731,6.642 130.911 C 6.710 131.090,6.887 131.212,7.034 131.182 C 7.181 131.153,7.526 131.252,7.799 131.403 C 8.073 131.554,8.478 131.631,8.699 131.573 C 8.920 131.515,9.101 131.555,9.101 131.660 C 9.101 131.774,19.711 131.852,35.132 131.852 C 53.441 131.852,61.164 131.785,61.164 131.626 C 61.164 131.495,61.345 131.458,61.597 131.538 C 61.836 131.613,62.165 131.564,62.328 131.429 C 62.492 131.293,62.885 131.153,63.202 131.119 C 63.519 131.084,63.890 130.903,64.027 130.716 C 64.163 130.530,64.329 130.431,64.395 130.498 C 64.462 130.564,64.624 130.417,64.755 130.171 C 64.887 129.925,65.071 129.771,65.165 129.829 C 65.259 129.887,65.563 129.678,65.842 129.365 C 66.121 129.052,66.202 128.888,66.022 129.001 C 65.842 129.114,65.889 129.027,66.128 128.808 C 66.366 128.589,66.536 128.324,66.506 128.220 C 66.476 128.116,66.594 127.976,66.769 127.908 C 66.944 127.841,67.035 127.701,66.970 127.597 C 66.906 127.493,66.960 127.407,67.090 127.407 C 67.220 127.407,67.268 127.312,67.196 127.196 C 67.124 127.079,67.163 126.984,67.282 126.984 C 67.402 126.984,67.439 126.826,67.365 126.632 C 67.269 126.382,67.308 126.328,67.500 126.447 C 67.700 126.571,67.733 126.497,67.627 126.164 C 67.542 125.894,67.576 125.714,67.715 125.714 C 67.854 125.714,67.892 125.506,67.812 125.185 C 67.730 124.859,67.769 124.656,67.914 124.656 C 68.050 124.656,68.148 124.260,68.148 123.704 C 68.148 123.148,68.050 122.751,67.914 122.751 C 67.769 122.751,67.730 122.548,67.812 122.222 C 67.895 121.892,67.855 121.693,67.706 121.693 C 67.575 121.693,67.523 121.550,67.590 121.376 C 67.657 121.201,67.609 121.058,67.484 121.058 C 67.359 121.058,67.313 120.910,67.382 120.730 C 67.465 120.515,67.423 120.454,67.263 120.553 C 67.099 120.654,67.063 120.587,67.153 120.352 C 67.227 120.158,67.196 120.000,67.083 120.000 C 66.971 120.000,66.902 119.911,66.931 119.803 C 66.960 119.695,66.794 119.450,66.561 119.259 C 66.328 119.067,66.280 118.973,66.455 119.050 C 66.630 119.127,66.534 118.983,66.243 118.730 C 65.952 118.477,65.857 118.344,66.032 118.435 C 66.305 118.577,66.309 118.550,66.059 118.242 C 65.899 118.045,65.664 117.884,65.538 117.884 C 65.411 117.884,65.082 117.622,64.807 117.302 C 64.533 116.981,64.370 116.862,64.445 117.037 C 64.536 117.249,64.482 117.233,64.280 116.987 C 64.115 116.786,63.917 116.682,63.842 116.758 C 63.766 116.834,63.704 116.779,63.704 116.637 C 63.704 116.494,63.608 116.436,63.492 116.508 C 63.376 116.580,63.280 116.532,63.280 116.402 C 63.280 116.272,63.192 116.220,63.083 116.287 C 62.975 116.354,62.823 116.306,62.745 116.180 C 62.667 116.053,62.469 116.001,62.307 116.064 C 62.144 116.126,62.011 116.083,62.011 115.968 C 62.011 115.851,61.778 115.817,61.481 115.892 C 61.155 115.974,60.952 115.935,60.952 115.790 C 60.952 115.620,53.888 115.556,35.132 115.556 C 16.376 115.556,9.312 115.620,9.312 115.790 M337.143 115.771 C 337.143 115.896,336.919 115.931,336.614 115.854 C 336.276 115.769,336.085 115.811,336.085 115.968 C 336.085 116.104,335.990 116.157,335.873 116.085 C 335.757 116.013,335.450 116.103,335.191 116.284 C 334.932 116.465,334.574 116.614,334.394 116.614 C 333.974 116.614,331.813 118.496,331.960 118.733 C 332.021 118.832,331.857 119.062,331.597 119.245 C 331.336 119.427,331.210 119.577,331.316 119.577 C 331.422 119.577,331.334 119.705,331.119 119.862 C 330.905 120.019,330.797 120.257,330.880 120.391 C 330.962 120.525,330.932 120.635,330.813 120.635 C 330.693 120.635,330.656 120.793,330.730 120.987 C 330.818 121.215,330.783 121.288,330.631 121.194 C 330.494 121.110,330.388 121.206,330.378 121.424 C 330.231 124.417,330.237 125.314,330.402 125.416 C 330.511 125.483,330.541 125.721,330.471 125.944 C 330.396 126.179,330.442 126.349,330.580 126.349 C 330.711 126.349,330.761 126.442,330.692 126.555 C 330.531 126.815,331.154 128.042,331.446 128.042 C 331.567 128.042,331.609 128.133,331.541 128.243 C 331.473 128.354,331.613 128.549,331.852 128.677 C 332.091 128.805,332.239 128.988,332.180 129.083 C 332.122 129.178,332.278 129.435,332.528 129.654 C 332.836 129.924,332.932 129.951,332.824 129.735 C 332.737 129.561,332.855 129.632,333.087 129.894 C 333.318 130.156,333.611 130.370,333.738 130.370 C 333.864 130.370,333.968 130.471,333.968 130.595 C 333.968 130.718,334.054 130.766,334.158 130.702 C 334.262 130.637,334.406 130.737,334.477 130.923 C 334.548 131.109,334.737 131.211,334.897 131.150 C 335.056 131.088,335.277 131.129,335.387 131.239 C 335.498 131.350,335.890 131.461,336.259 131.487 C 336.628 131.513,336.931 131.606,336.931 131.693 C 336.931 131.935,388.945 131.891,389.095 131.649 C 389.164 131.538,389.361 131.501,389.533 131.567 C 389.706 131.633,389.973 131.582,390.128 131.454 C 390.283 131.326,390.472 131.283,390.549 131.360 C 390.625 131.436,390.688 131.391,390.688 131.259 C 390.688 131.127,390.823 131.071,390.989 131.134 C 391.155 131.198,391.488 131.052,391.730 130.810 C 391.971 130.568,392.170 130.442,392.170 130.529 C 392.171 130.616,392.416 130.402,392.715 130.053 C 393.014 129.704,393.188 129.561,393.103 129.735 C 393.017 129.910,393.198 129.825,393.504 129.546 C 393.811 129.267,394.017 128.968,393.963 128.880 C 393.909 128.793,394.013 128.665,394.195 128.595 C 394.376 128.526,394.464 128.372,394.392 128.254 C 394.319 128.136,394.407 127.982,394.589 127.913 C 394.770 127.843,394.866 127.701,394.801 127.597 C 394.737 127.493,394.790 127.407,394.921 127.407 C 395.051 127.407,395.098 127.312,395.026 127.196 C 394.955 127.079,394.994 126.984,395.113 126.984 C 395.233 126.984,395.270 126.826,395.195 126.632 C 395.113 126.418,395.146 126.332,395.277 126.414 C 395.421 126.503,395.499 125.585,395.509 123.694 C 395.520 121.674,395.457 120.883,395.292 120.984 C 395.144 121.076,395.109 121.001,395.195 120.775 C 395.270 120.582,395.233 120.423,395.113 120.423 C 394.994 120.423,394.955 120.328,395.026 120.212 C 395.098 120.095,395.051 120.000,394.921 120.000 C 394.790 120.000,394.737 119.915,394.801 119.811 C 394.866 119.706,394.775 119.566,394.600 119.499 C 394.425 119.432,394.306 119.286,394.337 119.174 C 394.367 119.063,394.201 118.815,393.968 118.624 C 393.735 118.432,393.688 118.348,393.862 118.438 C 394.136 118.577,394.139 118.550,393.889 118.242 C 393.730 118.045,393.495 117.884,393.368 117.884 C 393.241 117.884,392.913 117.622,392.638 117.302 C 392.363 116.981,392.200 116.862,392.276 117.037 C 392.367 117.249,392.312 117.233,392.111 116.987 C 391.946 116.786,391.748 116.682,391.672 116.758 C 391.596 116.834,391.534 116.779,391.534 116.637 C 391.534 116.494,391.447 116.431,391.341 116.497 C 391.234 116.563,391.112 116.512,391.070 116.384 C 391.027 116.256,390.733 116.136,390.417 116.118 C 390.100 116.100,389.842 116.011,389.841 115.922 C 389.841 115.832,389.603 115.819,389.312 115.892 C 388.986 115.974,388.783 115.935,388.783 115.790 C 388.783 115.620,381.719 115.556,362.963 115.556 C 345.569 115.556,337.143 115.626,337.143 115.771 M179.894 142.328 C 179.894 145.762,179.918 148.643,179.947 148.730 C 179.976 148.817,177.571 148.951,174.603 149.028 C 161.984 149.352,161.465 149.922,161.821 163.069 C 162.418 185.071,162.035 188.429,158.524 191.974 C 156.547 193.971,152.040 196.031,148.621 196.501 C 146.998 196.724,147.223 196.886,150.170 197.617 C 157.638 199.469,160.984 202.912,161.911 209.701 C 162.173 211.618,162.146 216.014,161.771 232.189 C 161.507 243.604,162.251 244.359,174.034 244.628 L 179.919 244.762 179.901 251.088 C 179.891 254.567,179.832 257.496,179.770 257.596 C 179.618 257.842,168.162 257.822,163.799 257.568 C 145.054 256.480,139.776 248.937,142.175 226.667 C 142.792 220.938,143.144 215.406,143.001 213.697 C 142.633 209.306,139.254 206.457,132.698 205.010 C 130.336 204.489,129.668 204.400,125.979 204.113 L 124.233 203.977 124.233 196.836 L 124.233 189.694 126.620 189.558 C 135.017 189.078,140.863 186.469,142.473 182.482 C 143.140 180.832,143.065 173.558,142.330 168.466 C 141.601 163.419,141.474 154.299,142.087 151.005 C 143.861 141.478,149.679 137.339,162.857 136.227 C 163.323 136.188,167.347 136.140,171.799 136.120 L 179.894 136.085 179.894 142.328 M238.836 136.578 C 254.816 139.148,258.614 146.906,255.536 170.688 C 254.938 175.308,254.895 180.622,255.444 182.070 C 257.096 186.424,262.655 188.985,271.765 189.589 L 273.968 189.735 274.024 196.878 C 274.077 203.732,274.064 204.021,273.684 204.021 C 264.952 204.021,257.572 206.935,255.603 211.160 C 254.994 212.466,254.954 218.837,255.528 223.051 C 259.334 250.981,253.807 257.608,226.667 257.657 L 218.307 257.672 218.251 251.337 C 218.207 246.410,218.254 244.965,218.462 244.834 C 218.610 244.741,220.779 244.666,223.282 244.667 C 232.093 244.671,234.722 243.780,235.903 240.390 C 236.369 239.051,236.430 232.994,236.105 220.421 C 235.678 203.946,237.861 199.908,248.519 197.459 C 250.961 196.898,251.057 196.739,249.153 196.412 C 243.818 195.495,239.232 192.576,237.675 189.108 C 236.117 185.634,235.862 183.092,236.105 173.439 C 236.727 148.706,237.064 149.367,223.651 149.058 L 218.201 148.932 218.201 142.484 L 218.201 136.036 227.566 136.154 C 234.211 136.237,237.484 136.360,238.836 136.578 M9.524 152.186 C 9.524 152.332,9.284 152.362,8.862 152.269 C 8.355 152.158,8.240 152.187,8.368 152.394 C 8.488 152.588,8.432 152.625,8.174 152.526 C 7.957 152.443,7.487 152.592,6.998 152.901 C 6.550 153.184,6.141 153.372,6.088 153.319 C 5.930 153.161,4.010 154.943,4.130 155.137 C 4.190 155.235,4.027 155.464,3.766 155.647 C 3.505 155.829,3.379 155.979,3.485 155.979 C 3.592 155.979,3.503 156.107,3.289 156.264 C 3.074 156.421,2.966 156.659,3.049 156.793 C 3.132 156.927,3.102 157.037,2.982 157.037 C 2.862 157.037,2.825 157.196,2.900 157.389 C 2.996 157.640,2.957 157.693,2.765 157.574 C 2.562 157.449,2.532 157.527,2.646 157.884 C 2.737 158.171,2.716 158.310,2.593 158.234 C 2.469 158.157,2.393 158.883,2.399 160.113 C 2.403 161.215,2.495 162.116,2.602 162.116 C 2.709 162.116,2.742 162.259,2.675 162.434 C 2.509 162.867,2.743 163.416,3.021 163.244 C 3.162 163.157,3.196 163.236,3.111 163.457 C 3.037 163.651,3.074 163.810,3.194 163.810 C 3.313 163.810,3.359 163.895,3.294 163.999 C 3.230 164.103,3.320 164.243,3.495 164.311 C 3.670 164.378,3.789 164.524,3.759 164.635 C 3.728 164.747,3.894 164.994,4.127 165.186 C 4.360 165.377,4.407 165.464,4.233 165.378 C 4.058 165.293,4.146 165.476,4.428 165.786 C 5.010 166.424,5.264 166.536,4.867 165.979 C 4.722 165.775,4.870 165.894,5.197 166.243 C 5.523 166.593,5.868 166.854,5.964 166.825 C 6.059 166.796,6.138 166.865,6.138 166.979 C 6.138 167.194,7.272 167.855,7.560 167.808 C 7.651 167.793,7.772 167.799,7.831 167.822 C 7.889 167.845,8.127 167.925,8.360 168.001 C 8.908 168.179,61.347 168.177,61.905 167.998 C 62.138 167.924,62.376 167.845,62.434 167.822 C 62.492 167.799,62.614 167.793,62.705 167.808 C 62.992 167.855,64.127 167.194,64.127 166.979 C 64.127 166.865,64.216 166.796,64.324 166.825 C 64.432 166.854,64.677 166.688,64.868 166.455 C 65.060 166.222,65.147 166.175,65.062 166.349 C 64.977 166.524,65.205 166.390,65.568 166.052 C 65.931 165.714,66.185 165.367,66.131 165.281 C 66.078 165.194,66.183 165.067,66.364 164.997 C 66.545 164.928,66.634 164.774,66.561 164.656 C 66.488 164.538,66.577 164.385,66.758 164.315 C 66.939 164.245,67.035 164.103,66.970 163.999 C 66.906 163.895,66.960 163.810,67.090 163.810 C 67.220 163.810,67.268 163.714,67.196 163.598 C 67.124 163.481,67.163 163.386,67.282 163.386 C 67.402 163.386,67.439 163.228,67.365 163.034 C 67.269 162.784,67.308 162.730,67.500 162.849 C 67.700 162.973,67.733 162.899,67.627 162.566 C 67.542 162.296,67.576 162.116,67.715 162.116 C 67.854 162.116,67.892 161.908,67.812 161.587 C 67.730 161.261,67.769 161.058,67.914 161.058 C 68.046 161.058,68.148 160.690,68.148 160.212 C 68.148 159.726,68.047 159.365,67.910 159.365 C 67.758 159.365,67.718 159.133,67.801 158.720 C 67.892 158.264,67.859 158.118,67.688 158.224 C 67.524 158.325,67.485 158.226,67.566 157.917 C 67.632 157.666,67.589 157.460,67.471 157.460 C 67.353 157.460,67.313 157.313,67.382 157.132 C 67.465 156.917,67.423 156.856,67.263 156.955 C 67.099 157.056,67.063 156.989,67.153 156.754 C 67.227 156.561,67.196 156.402,67.083 156.402 C 66.971 156.402,66.902 156.314,66.931 156.205 C 66.960 156.097,66.794 155.852,66.561 155.661 C 66.328 155.469,66.280 155.374,66.455 155.450 C 66.630 155.525,66.582 155.430,66.349 155.239 C 66.116 155.047,65.950 154.802,65.979 154.694 C 66.008 154.586,65.940 154.497,65.829 154.497 C 65.717 154.497,65.384 154.236,65.088 153.918 C 64.792 153.599,64.549 153.432,64.547 153.547 C 64.545 153.683,64.489 153.683,64.388 153.545 C 64.115 153.175,62.432 152.357,62.217 152.490 C 62.103 152.560,62.011 152.515,62.011 152.389 C 62.011 152.254,61.804 152.213,61.505 152.288 C 61.226 152.358,60.935 152.312,60.857 152.186 C 60.657 151.863,9.524 151.862,9.524 152.186 M337.354 152.186 C 337.354 152.332,337.115 152.362,336.693 152.269 C 336.185 152.158,336.071 152.187,336.199 152.394 C 336.319 152.589,336.262 152.625,335.994 152.522 C 335.643 152.387,334.371 152.930,334.215 153.282 C 334.176 153.370,334.068 153.395,333.976 153.338 C 333.747 153.196,331.822 154.913,331.960 155.137 C 332.021 155.235,331.857 155.464,331.597 155.647 C 331.336 155.829,331.210 155.979,331.316 155.979 C 331.422 155.979,331.334 156.107,331.119 156.264 C 330.905 156.421,330.797 156.659,330.880 156.793 C 330.962 156.927,330.932 157.037,330.813 157.037 C 330.693 157.037,330.650 157.180,330.717 157.354 C 330.784 157.529,330.728 157.672,330.592 157.672 C 330.456 157.672,330.407 157.771,330.482 157.893 C 330.557 158.014,330.526 158.229,330.413 158.369 C 330.242 158.582,330.232 159.662,330.377 162.381 C 330.388 162.585,330.483 162.751,330.589 162.751 C 330.694 162.751,330.720 162.910,330.645 163.104 C 330.560 163.324,330.594 163.404,330.736 163.316 C 330.859 163.240,331.017 163.324,331.087 163.504 C 331.158 163.692,331.123 163.776,331.003 163.702 C 330.670 163.497,330.760 163.745,331.164 164.150 C 331.368 164.353,331.534 164.594,331.534 164.685 C 331.534 164.775,331.725 165.004,331.958 165.192 C 332.190 165.380,332.238 165.464,332.063 165.378 C 331.889 165.293,331.977 165.476,332.259 165.786 C 332.813 166.394,333.014 166.505,332.801 166.085 C 332.727 165.939,332.876 166.058,333.134 166.349 C 333.391 166.640,333.684 166.854,333.785 166.825 C 333.886 166.796,333.968 166.873,333.968 166.997 C 333.968 167.120,334.063 167.162,334.180 167.090 C 334.296 167.018,334.392 167.057,334.392 167.176 C 334.392 167.453,334.935 167.742,335.873 167.963 C 336.670 168.151,389.069 168.211,389.676 168.025 C 389.877 167.964,390.100 167.854,390.173 167.781 C 390.246 167.708,390.455 167.705,390.637 167.775 C 390.841 167.854,390.915 167.816,390.830 167.677 C 390.753 167.553,390.838 167.395,391.017 167.326 C 391.221 167.248,391.291 167.288,391.202 167.431 C 391.104 167.589,391.200 167.586,391.509 167.421 C 391.756 167.289,391.958 167.089,391.958 166.977 C 391.958 166.864,392.046 166.796,392.154 166.825 C 392.263 166.854,392.508 166.688,392.699 166.455 C 392.891 166.222,392.978 166.175,392.893 166.349 C 392.808 166.524,393.036 166.390,393.399 166.052 C 393.762 165.714,394.015 165.367,393.962 165.281 C 393.909 165.194,394.007 165.069,394.181 165.002 C 394.355 164.936,394.497 164.735,394.497 164.557 C 394.497 164.379,394.581 164.233,394.684 164.233 C 394.898 164.233,395.197 163.423,395.141 162.995 C 395.121 162.837,395.192 162.763,395.300 162.830 C 395.416 162.902,395.501 161.831,395.508 160.206 C 395.515 158.468,395.440 157.460,395.303 157.460 C 395.184 157.460,395.142 157.317,395.209 157.143 C 395.276 156.968,395.233 156.825,395.113 156.825 C 394.994 156.825,394.955 156.730,395.026 156.614 C 395.098 156.497,395.051 156.402,394.921 156.402 C 394.790 156.402,394.745 156.304,394.818 156.185 C 394.892 156.065,394.636 155.667,394.249 155.300 C 393.862 154.933,393.688 154.701,393.862 154.785 C 394.037 154.868,393.993 154.814,393.765 154.664 C 393.537 154.514,393.111 154.130,392.819 153.810 C 392.526 153.489,392.124 153.228,391.926 153.228 C 391.727 153.228,391.411 153.074,391.224 152.887 C 391.037 152.700,390.649 152.533,390.363 152.517 C 390.076 152.500,389.842 152.414,389.841 152.324 C 389.841 152.234,389.614 152.218,389.335 152.288 C 389.057 152.358,388.766 152.312,388.688 152.186 C 388.488 151.863,337.354 151.862,337.354 152.186 M8.687 188.136 C 8.518 188.244,8.311 188.289,8.226 188.237 C 8.141 188.184,8.011 188.240,7.937 188.360 C 7.862 188.480,7.713 188.524,7.604 188.457 C 7.496 188.390,7.407 188.433,7.407 188.552 C 7.407 188.672,7.272 188.718,7.106 188.654 C 6.941 188.591,6.607 188.737,6.366 188.978 C 6.124 189.220,5.925 189.347,5.925 189.259 C 5.924 189.172,5.679 189.386,5.380 189.735 C 5.082 190.085,4.907 190.228,4.992 190.053 C 5.078 189.878,4.894 189.966,4.584 190.249 C 3.976 190.803,3.865 191.003,4.286 190.790 C 4.431 190.717,4.360 190.813,4.127 191.005 C 3.894 191.196,3.728 191.444,3.759 191.555 C 3.789 191.667,3.670 191.813,3.495 191.880 C 3.320 191.947,3.230 192.087,3.294 192.191 C 3.359 192.296,3.313 192.381,3.194 192.381 C 3.074 192.381,3.037 192.539,3.111 192.733 C 3.198 192.959,3.163 193.034,3.014 192.942 C 2.749 192.778,2.443 193.536,2.644 193.861 C 2.717 193.978,2.693 194.074,2.592 194.074 C 2.490 194.074,2.403 194.976,2.399 196.078 C 2.393 197.307,2.469 198.033,2.593 197.956 C 2.716 197.880,2.737 198.020,2.646 198.307 C 2.532 198.664,2.562 198.741,2.765 198.616 C 2.957 198.497,2.996 198.551,2.900 198.801 C 2.825 198.995,2.862 199.153,2.982 199.153 C 3.102 199.153,3.132 199.263,3.049 199.397 C 2.966 199.531,3.074 199.769,3.289 199.926 C 3.503 200.083,3.598 200.212,3.500 200.212 C 3.402 200.212,3.525 200.388,3.773 200.603 C 4.022 200.819,4.175 201.045,4.114 201.107 C 4.053 201.168,4.450 201.612,4.997 202.093 C 5.544 202.574,6.035 202.925,6.088 202.872 C 6.141 202.819,6.550 203.007,6.998 203.289 C 7.487 203.598,7.957 203.748,8.174 203.665 C 8.437 203.564,8.488 203.602,8.363 203.804 C 8.231 204.018,8.318 204.051,8.739 203.945 C 9.040 203.870,9.345 203.904,9.418 204.020 C 9.612 204.335,60.952 204.313,60.952 203.998 C 60.952 203.854,61.155 203.815,61.481 203.896 C 61.801 203.977,62.011 203.939,62.011 203.801 C 62.011 203.676,62.108 203.633,62.226 203.706 C 62.345 203.779,62.759 203.643,63.146 203.404 C 63.533 203.164,63.910 203.029,63.984 203.102 C 64.057 203.175,64.177 203.079,64.250 202.889 C 64.323 202.698,64.463 202.592,64.562 202.653 C 64.660 202.713,64.841 202.576,64.963 202.348 C 65.085 202.120,65.377 201.873,65.611 201.798 C 65.846 201.724,65.986 201.579,65.923 201.477 C 65.860 201.375,66.004 201.186,66.243 201.058 C 66.483 200.930,66.629 200.745,66.568 200.646 C 66.507 200.548,66.606 200.411,66.787 200.341 C 66.968 200.272,67.057 200.119,66.985 200.001 C 66.913 199.884,66.951 199.788,67.071 199.788 C 67.190 199.788,67.227 199.630,67.153 199.436 C 67.063 199.201,67.099 199.134,67.263 199.236 C 67.423 199.335,67.465 199.273,67.382 199.059 C 67.313 198.878,67.353 198.730,67.471 198.730 C 67.589 198.730,67.632 198.525,67.566 198.274 C 67.482 197.953,67.522 197.864,67.700 197.974 C 67.883 198.087,67.915 197.979,67.816 197.584 C 67.730 197.242,67.767 197.037,67.914 197.037 C 68.050 197.037,68.148 196.641,68.148 196.085 C 68.148 195.544,68.049 195.132,67.920 195.132 C 67.774 195.132,67.744 194.893,67.837 194.471 C 67.944 193.979,67.916 193.850,67.725 193.968 C 67.538 194.084,67.509 193.997,67.619 193.651 C 67.732 193.294,67.702 193.216,67.500 193.342 C 67.308 193.460,67.269 193.407,67.365 193.156 C 67.439 192.963,67.402 192.804,67.282 192.804 C 67.163 192.804,67.124 192.709,67.196 192.593 C 67.268 192.476,67.220 192.381,67.090 192.381 C 66.960 192.381,66.906 192.296,66.970 192.191 C 67.035 192.087,66.932 191.942,66.741 191.869 C 66.550 191.796,66.452 191.679,66.522 191.609 C 66.591 191.539,66.438 191.296,66.181 191.069 C 65.925 190.841,65.857 190.726,66.032 190.812 C 66.206 190.897,66.118 190.714,65.836 190.404 C 65.282 189.796,65.081 189.685,65.295 190.106 C 65.369 190.251,65.219 190.132,64.962 189.841 C 64.705 189.550,64.412 189.336,64.311 189.365 C 64.210 189.394,64.127 189.325,64.127 189.212 C 64.127 188.997,62.992 188.335,62.705 188.383 C 62.614 188.398,62.492 188.391,62.434 188.369 C 62.376 188.346,62.138 188.266,61.905 188.191 C 61.218 187.971,9.033 187.917,8.687 188.136 M336.678 188.049 C 336.613 188.114,336.286 188.216,335.952 188.276 C 335.618 188.336,335.314 188.469,335.277 188.572 C 335.241 188.675,335.095 188.715,334.952 188.660 C 334.810 188.606,334.487 188.754,334.234 188.990 C 333.981 189.225,333.714 189.418,333.641 189.418 C 333.567 189.418,333.318 189.632,333.087 189.894 C 332.855 190.156,332.737 190.228,332.824 190.053 C 332.932 189.838,332.836 189.864,332.528 190.134 C 332.278 190.353,332.122 190.610,332.180 190.705 C 332.239 190.801,332.091 190.983,331.852 191.111 C 331.613 191.239,331.473 191.434,331.541 191.545 C 331.609 191.656,331.568 191.746,331.449 191.746 C 331.329 191.746,331.124 191.948,330.992 192.195 C 330.826 192.504,330.823 192.599,330.982 192.501 C 331.125 192.413,331.165 192.482,331.087 192.686 C 331.017 192.866,330.859 192.951,330.736 192.874 C 330.594 192.787,330.560 192.866,330.645 193.087 C 330.720 193.281,330.694 193.439,330.589 193.439 C 330.483 193.439,330.390 193.606,330.381 193.810 C 330.372 194.013,330.323 194.938,330.272 195.864 C 330.221 196.790,330.272 197.659,330.384 197.795 C 330.497 197.930,330.524 198.212,330.444 198.421 C 330.336 198.703,330.371 198.755,330.582 198.624 C 330.789 198.496,330.829 198.544,330.730 198.801 C 330.656 198.995,330.693 199.153,330.813 199.153 C 330.932 199.153,330.962 199.263,330.880 199.397 C 330.797 199.531,330.905 199.769,331.119 199.926 C 331.334 200.083,331.429 200.212,331.331 200.212 C 331.233 200.212,331.355 200.388,331.604 200.603 C 331.852 200.819,332.006 201.045,331.945 201.107 C 331.785 201.266,333.775 202.977,333.976 202.852 C 334.068 202.795,334.176 202.821,334.215 202.909 C 334.361 203.238,335.681 203.789,336.017 203.660 C 336.264 203.565,336.317 203.605,336.199 203.796 C 336.071 204.004,336.185 204.033,336.693 203.921 C 337.115 203.828,337.354 203.859,337.354 204.004 C 337.354 204.167,344.805 204.233,363.069 204.233 C 381.747 204.233,388.783 204.169,388.783 203.998 C 388.783 203.854,388.986 203.815,389.312 203.896 C 389.603 203.969,389.841 203.956,389.841 203.866 C 389.842 203.777,390.100 203.689,390.417 203.670 C 390.733 203.652,391.027 203.532,391.070 203.404 C 391.112 203.277,391.234 203.226,391.341 203.292 C 391.447 203.357,391.534 203.294,391.534 203.152 C 391.534 203.009,391.596 202.954,391.672 203.030 C 391.748 203.106,391.946 203.003,392.111 202.801 C 392.303 202.568,392.358 202.549,392.263 202.751 C 392.181 202.926,392.394 202.783,392.736 202.434 C 393.079 202.085,393.544 201.676,393.769 201.527 C 393.995 201.377,394.037 201.312,393.862 201.383 C 393.688 201.455,393.735 201.356,393.968 201.165 C 394.201 200.973,394.367 200.726,394.337 200.614 C 394.306 200.503,394.425 200.357,394.600 200.289 C 394.775 200.222,394.866 200.082,394.801 199.978 C 394.737 199.874,394.790 199.788,394.921 199.788 C 395.051 199.788,395.098 199.693,395.026 199.577 C 394.955 199.460,394.994 199.365,395.113 199.365 C 395.233 199.365,395.276 199.222,395.209 199.048 C 395.142 198.873,395.180 198.730,395.294 198.730 C 395.418 198.730,395.501 197.632,395.501 195.983 C 395.501 194.134,395.429 193.281,395.281 193.372 C 395.145 193.456,395.112 193.373,395.195 193.156 C 395.270 192.963,395.233 192.804,395.113 192.804 C 394.994 192.804,394.950 192.717,395.016 192.610 C 395.082 192.503,394.992 192.271,394.817 192.096 C 394.641 191.920,394.497 191.713,394.497 191.636 C 394.497 191.559,394.283 191.307,394.021 191.076 C 393.759 190.845,393.688 190.726,393.862 190.812 C 394.037 190.897,393.952 190.717,393.673 190.411 C 393.394 190.105,393.089 189.902,392.996 189.960 C 392.902 190.017,392.721 189.869,392.593 189.630 C 392.465 189.390,392.269 189.250,392.159 189.319 C 392.048 189.387,391.958 189.345,391.958 189.224 C 391.958 189.000,390.832 188.334,390.535 188.383 C 390.445 188.398,390.323 188.391,390.265 188.369 C 390.206 188.346,389.968 188.267,389.735 188.193 C 389.213 188.027,336.842 187.884,336.678 188.049 M9.101 224.544 C 9.101 224.656,8.974 224.700,8.820 224.641 C 8.665 224.582,8.260 224.647,7.920 224.787 C 7.580 224.927,7.230 225.027,7.143 225.008 C 7.056 224.989,6.984 225.074,6.984 225.198 C 6.984 225.321,6.889 225.363,6.772 225.291 C 6.656 225.219,6.561 225.267,6.561 225.397 C 6.561 225.527,6.476 225.581,6.371 225.516 C 6.267 225.452,6.122 225.555,6.049 225.746 C 5.976 225.936,5.859 226.035,5.789 225.965 C 5.719 225.895,5.486 226.048,5.272 226.305 C 5.057 226.562,4.879 226.689,4.875 226.588 C 4.871 226.486,4.726 226.521,4.553 226.665 C 4.379 226.809,4.287 227.006,4.347 227.103 C 4.407 227.201,4.260 227.385,4.021 227.513 C 3.782 227.641,3.636 227.827,3.697 227.925 C 3.757 228.023,3.655 228.162,3.469 228.234 C 3.270 228.310,3.182 228.498,3.256 228.690 C 3.325 228.870,3.297 228.965,3.194 228.901 C 2.969 228.762,2.701 229.377,2.869 229.649 C 2.934 229.755,2.877 229.841,2.741 229.841 C 2.605 229.841,2.549 229.984,2.616 230.159 C 2.683 230.333,2.664 230.476,2.573 230.476 C 2.481 230.476,2.403 231.378,2.399 232.480 C 2.393 233.709,2.469 234.435,2.593 234.358 C 2.714 234.284,2.739 234.415,2.654 234.682 C 2.571 234.944,2.603 235.132,2.730 235.132 C 2.851 235.132,2.889 235.291,2.815 235.484 C 2.724 235.720,2.761 235.786,2.925 235.685 C 3.085 235.586,3.126 235.647,3.044 235.862 C 2.974 236.043,3.023 236.190,3.152 236.190 C 3.281 236.190,3.386 236.290,3.386 236.411 C 3.386 236.664,3.587 236.921,4.762 238.168 C 5.818 239.289,6.510 239.839,6.268 239.365 C 6.172 239.176,6.228 239.196,6.407 239.415 C 6.573 239.617,6.771 239.720,6.846 239.644 C 6.922 239.568,6.984 239.623,6.984 239.766 C 6.984 239.908,7.073 239.970,7.181 239.903 C 7.290 239.836,7.442 239.885,7.520 240.011 C 7.598 240.137,7.795 240.189,7.958 240.127 C 8.121 240.064,8.254 240.116,8.254 240.241 C 8.254 240.379,8.464 240.416,8.783 240.336 C 9.088 240.260,9.312 240.295,9.312 240.419 C 9.312 240.565,17.738 240.635,35.132 240.635 C 53.888 240.635,60.952 240.571,60.952 240.400 C 60.952 240.256,61.155 240.217,61.481 240.299 C 61.778 240.373,62.011 240.340,62.011 240.222 C 62.011 240.107,62.144 240.064,62.307 240.127 C 62.469 240.189,62.667 240.137,62.745 240.011 C 62.823 239.885,62.975 239.836,63.083 239.903 C 63.192 239.970,63.280 239.919,63.280 239.788 C 63.280 239.658,63.376 239.611,63.492 239.683 C 63.608 239.754,63.704 239.697,63.704 239.554 C 63.704 239.411,63.766 239.357,63.842 239.432 C 63.917 239.508,64.115 239.405,64.280 239.203 C 64.482 238.958,64.536 238.941,64.445 239.153 C 64.370 239.328,64.533 239.209,64.807 238.889 C 65.082 238.569,65.411 238.307,65.538 238.307 C 65.664 238.307,65.899 238.146,66.059 237.949 C 66.309 237.641,66.305 237.613,66.032 237.753 C 65.857 237.842,65.905 237.758,66.138 237.567 C 66.370 237.375,66.536 237.128,66.506 237.016 C 66.476 236.905,66.594 236.759,66.769 236.692 C 66.944 236.624,67.035 236.484,66.970 236.380 C 66.906 236.276,66.960 236.190,67.090 236.190 C 67.220 236.190,67.273 236.104,67.208 235.998 C 67.029 235.710,67.314 235.115,67.558 235.266 C 67.689 235.347,67.716 235.226,67.627 234.947 C 67.542 234.677,67.576 234.497,67.715 234.497 C 67.854 234.497,67.892 234.289,67.812 233.968 C 67.730 233.642,67.769 233.439,67.914 233.439 C 68.050 233.439,68.148 233.043,68.148 232.487 C 68.148 231.931,68.050 231.534,67.914 231.534 C 67.769 231.534,67.730 231.331,67.812 231.005 C 67.892 230.684,67.854 230.476,67.715 230.476 C 67.576 230.476,67.542 230.297,67.627 230.026 C 67.733 229.693,67.700 229.620,67.500 229.744 C 67.308 229.862,67.269 229.809,67.365 229.559 C 67.439 229.365,67.402 229.206,67.282 229.206 C 67.163 229.206,67.124 229.111,67.196 228.995 C 67.268 228.878,67.220 228.783,67.090 228.783 C 66.960 228.783,66.906 228.698,66.970 228.594 C 67.035 228.489,66.932 228.344,66.741 228.271 C 66.550 228.198,66.452 228.081,66.522 228.011 C 66.591 227.941,66.438 227.698,66.181 227.471 C 65.925 227.244,65.857 227.128,66.032 227.214 C 66.206 227.300,66.118 227.116,65.836 226.807 C 65.254 226.168,65.003 226.058,65.394 226.614 C 65.538 226.817,65.359 226.654,64.997 226.251 C 64.635 225.848,64.339 225.605,64.339 225.710 C 64.339 225.815,64.213 225.729,64.059 225.518 C 63.905 225.308,63.519 225.107,63.202 225.072 C 62.885 225.037,62.487 224.894,62.319 224.754 C 62.151 224.615,61.822 224.550,61.588 224.611 C 61.355 224.672,61.164 224.636,61.164 224.530 C 61.164 224.417,50.553 224.339,35.132 224.339 C 18.481 224.339,9.101 224.412,9.101 224.544 M336.931 224.497 C 336.931 224.585,336.634 224.677,336.273 224.702 C 335.911 224.728,335.498 224.846,335.354 224.965 C 335.211 225.084,335.031 225.119,334.954 225.042 C 334.877 224.966,334.815 225.020,334.815 225.162 C 334.815 225.305,334.720 225.363,334.603 225.291 C 334.487 225.219,334.392 225.267,334.392 225.397 C 334.392 225.527,334.296 225.575,334.180 225.503 C 334.063 225.431,333.968 225.473,333.968 225.596 C 333.968 225.719,333.822 225.820,333.644 225.820 C 333.466 225.820,333.265 225.963,333.198 226.138 C 333.131 226.312,332.941 226.455,332.776 226.455 C 332.611 226.455,332.391 226.680,332.286 226.955 C 332.182 227.230,331.940 227.515,331.749 227.589 C 331.558 227.662,331.461 227.818,331.533 227.935 C 331.606 228.052,331.567 228.148,331.446 228.148 C 331.154 228.148,330.531 229.376,330.692 229.636 C 330.761 229.749,330.724 229.841,330.608 229.841 C 330.492 229.841,330.388 230.008,330.378 230.212 C 330.231 233.114,330.237 234.098,330.402 234.199 C 330.511 234.267,330.538 234.516,330.462 234.753 C 330.361 235.071,330.397 235.141,330.595 235.018 C 330.787 234.899,330.827 234.953,330.730 235.203 C 330.656 235.397,330.693 235.556,330.813 235.556 C 330.932 235.556,330.962 235.665,330.880 235.799 C 330.797 235.933,330.905 236.171,331.119 236.328 C 331.334 236.485,331.420 236.615,331.310 236.617 C 331.201 236.619,331.209 236.690,331.328 236.776 C 331.447 236.861,331.704 237.183,331.900 237.491 C 332.373 238.236,334.019 239.570,334.603 239.683 C 334.860 239.732,335.199 239.879,335.356 240.010 C 335.514 240.141,335.742 240.187,335.864 240.112 C 335.985 240.036,336.085 240.086,336.085 240.222 C 336.085 240.380,336.276 240.421,336.614 240.336 C 336.919 240.260,337.143 240.295,337.143 240.419 C 337.143 240.565,345.569 240.635,362.963 240.635 C 381.719 240.635,388.783 240.571,388.783 240.400 C 388.783 240.256,388.986 240.217,389.312 240.299 C 389.609 240.373,389.841 240.340,389.841 240.222 C 389.841 240.107,389.974 240.064,390.137 240.127 C 390.300 240.189,390.497 240.137,390.575 240.011 C 390.653 239.885,390.806 239.836,390.914 239.903 C 391.022 239.970,391.111 239.919,391.111 239.788 C 391.111 239.658,391.206 239.611,391.323 239.683 C 391.439 239.754,391.534 239.697,391.534 239.554 C 391.534 239.411,391.596 239.357,391.672 239.432 C 391.748 239.508,391.946 239.405,392.111 239.203 C 392.311 238.960,392.365 238.943,392.273 239.153 C 392.196 239.328,392.435 239.138,392.804 238.730 C 393.173 238.323,393.403 238.132,393.315 238.307 C 393.208 238.518,393.309 238.489,393.614 238.221 C 394.126 237.772,394.213 237.577,393.810 237.781 C 393.664 237.855,393.735 237.758,393.968 237.567 C 394.201 237.375,394.367 237.128,394.337 237.016 C 394.306 236.905,394.425 236.759,394.600 236.692 C 394.775 236.624,394.866 236.484,394.801 236.380 C 394.737 236.276,394.790 236.190,394.921 236.190 C 395.051 236.190,395.098 236.095,395.026 235.979 C 394.955 235.862,394.994 235.767,395.113 235.767 C 395.233 235.767,395.270 235.609,395.195 235.415 C 395.109 235.189,395.144 235.114,395.292 235.206 C 395.457 235.308,395.520 234.516,395.509 232.496 C 395.499 230.606,395.421 229.688,395.277 229.777 C 395.146 229.858,395.113 229.772,395.195 229.559 C 395.270 229.365,395.233 229.206,395.113 229.206 C 394.994 229.206,394.955 229.111,395.026 228.995 C 395.098 228.878,395.051 228.783,394.921 228.783 C 394.790 228.783,394.737 228.698,394.801 228.594 C 394.866 228.489,394.762 228.344,394.572 228.271 C 394.381 228.198,394.282 228.081,394.352 228.011 C 394.422 227.941,394.269 227.698,394.012 227.471 C 393.755 227.244,393.688 227.128,393.862 227.214 C 394.037 227.300,393.952 227.119,393.673 226.813 C 393.394 226.507,393.089 226.304,392.996 226.362 C 392.902 226.420,392.718 226.266,392.586 226.020 C 392.454 225.774,392.292 225.627,392.226 225.693 C 392.160 225.759,391.994 225.661,391.857 225.474 C 391.721 225.288,391.350 225.107,391.033 225.072 C 390.715 225.037,390.322 224.898,390.159 224.762 C 389.995 224.626,389.667 224.577,389.428 224.653 C 389.176 224.733,388.995 224.696,388.995 224.565 C 388.995 224.406,381.272 224.339,362.963 224.339 C 348.646 224.339,336.931 224.410,336.931 224.497 M9.312 260.956 C 9.312 261.081,9.088 261.116,8.783 261.039 C 8.464 260.959,8.254 260.997,8.254 261.134 C 8.254 261.260,8.121 261.311,7.958 261.249 C 7.795 261.186,7.598 261.238,7.520 261.365 C 7.442 261.491,7.290 261.539,7.181 261.472 C 7.073 261.405,6.984 261.457,6.984 261.587 C 6.984 261.717,6.899 261.771,6.795 261.707 C 6.690 261.642,6.551 261.732,6.484 261.906 C 6.417 262.080,6.166 262.222,5.926 262.222 C 5.686 262.222,5.436 262.361,5.371 262.532 C 5.305 262.702,5.070 262.899,4.848 262.969 C 4.626 263.040,4.444 263.224,4.444 263.378 C 4.444 263.532,4.296 263.716,4.114 263.785 C 3.932 263.855,3.842 264.009,3.915 264.127 C 3.988 264.245,3.899 264.399,3.717 264.469 C 3.535 264.538,3.386 264.728,3.386 264.890 C 3.386 265.053,3.281 265.185,3.152 265.185 C 3.023 265.185,2.974 265.333,3.044 265.514 C 3.126 265.728,3.085 265.790,2.925 265.691 C 2.761 265.589,2.724 265.656,2.815 265.891 C 2.889 266.085,2.847 266.243,2.722 266.243 C 2.597 266.243,2.549 266.386,2.616 266.561 C 2.683 266.735,2.662 266.878,2.568 266.878 C 2.475 266.878,2.399 267.779,2.399 268.880 C 2.399 270.075,2.479 270.831,2.598 270.758 C 2.714 270.686,2.737 270.823,2.654 271.085 C 2.571 271.346,2.603 271.534,2.730 271.534 C 2.851 271.534,2.889 271.693,2.815 271.887 C 2.724 272.122,2.761 272.188,2.925 272.087 C 3.082 271.990,3.127 272.047,3.050 272.248 C 2.984 272.419,3.120 272.750,3.352 272.982 C 3.584 273.214,3.726 273.452,3.668 273.510 C 3.609 273.569,3.768 273.727,4.021 273.862 C 4.274 273.998,4.426 274.163,4.359 274.230 C 4.184 274.405,4.668 274.938,4.881 274.807 C 4.978 274.746,5.161 274.890,5.288 275.126 C 5.414 275.362,5.657 275.556,5.828 275.556 C 5.998 275.556,6.138 275.656,6.138 275.780 C 6.138 275.903,6.233 275.945,6.349 275.873 C 6.466 275.801,6.561 275.849,6.561 275.979 C 6.561 276.109,6.656 276.157,6.772 276.085 C 6.889 276.013,6.984 276.055,6.984 276.178 C 6.984 276.301,7.056 276.387,7.143 276.368 C 7.230 276.349,7.580 276.448,7.920 276.588 C 8.260 276.728,8.662 276.795,8.813 276.737 C 8.964 276.680,9.143 276.723,9.212 276.835 C 9.396 277.132,61.164 277.109,61.164 276.811 C 61.164 276.683,61.344 276.642,61.578 276.717 C 61.808 276.789,62.215 276.701,62.494 276.518 C 62.771 276.337,63.061 276.253,63.139 276.331 C 63.217 276.409,63.280 276.356,63.280 276.213 C 63.280 276.071,63.389 276.021,63.521 276.103 C 63.655 276.185,63.945 276.026,64.174 275.745 C 64.401 275.466,64.524 275.381,64.447 275.556 C 64.370 275.730,64.513 275.611,64.765 275.290 C 65.016 274.969,65.296 274.753,65.387 274.809 C 65.478 274.865,65.731 274.706,65.951 274.456 C 66.221 274.148,66.247 274.052,66.032 274.159 C 65.857 274.246,65.905 274.160,66.138 273.969 C 66.370 273.778,66.536 273.530,66.506 273.418 C 66.476 273.307,66.594 273.161,66.769 273.094 C 66.944 273.026,67.035 272.886,66.970 272.782 C 66.906 272.678,66.960 272.593,67.090 272.593 C 67.220 272.593,67.268 272.497,67.196 272.381 C 67.124 272.265,67.163 272.169,67.282 272.169 C 67.402 272.169,67.439 272.011,67.365 271.817 C 67.269 271.567,67.308 271.513,67.500 271.632 C 67.700 271.756,67.733 271.683,67.627 271.349 C 67.542 271.079,67.576 270.899,67.715 270.899 C 67.854 270.899,67.892 270.692,67.812 270.370 C 67.730 270.044,67.769 269.841,67.914 269.841 C 68.050 269.841,68.148 269.445,68.148 268.889 C 68.148 268.333,68.050 267.937,67.914 267.937 C 67.769 267.937,67.730 267.733,67.812 267.407 C 67.892 267.086,67.854 266.878,67.715 266.878 C 67.576 266.878,67.542 266.699,67.627 266.429 C 67.733 266.095,67.700 266.022,67.500 266.146 C 67.308 266.265,67.269 266.211,67.365 265.961 C 67.439 265.767,67.402 265.608,67.282 265.608 C 67.163 265.608,67.124 265.513,67.196 265.397 C 67.268 265.280,67.220 265.185,67.090 265.185 C 66.960 265.185,66.906 265.100,66.970 264.996 C 67.035 264.892,66.944 264.751,66.769 264.684 C 66.594 264.617,66.476 264.471,66.506 264.359 C 66.536 264.248,66.370 264.000,66.138 263.809 C 65.905 263.617,65.857 263.532,66.032 263.619 C 66.244 263.724,66.216 263.624,65.946 263.317 C 65.498 262.806,65.300 262.718,65.508 263.122 C 65.583 263.267,65.342 263.053,64.974 262.646 C 64.605 262.238,64.366 262.048,64.442 262.222 C 64.535 262.432,64.480 262.416,64.280 262.173 C 64.115 261.971,63.917 261.868,63.842 261.943 C 63.766 262.019,63.704 261.964,63.704 261.822 C 63.704 261.679,63.608 261.621,63.492 261.693 C 63.376 261.765,63.280 261.739,63.280 261.635 C 63.280 261.531,63.138 261.430,62.963 261.411 C 62.788 261.392,62.503 261.360,62.328 261.340 C 62.153 261.321,62.011 261.224,62.011 261.125 C 62.011 261.025,61.772 261.004,61.481 261.077 C 61.155 261.159,60.952 261.120,60.952 260.975 C 60.952 260.805,53.888 260.741,35.132 260.741 C 17.738 260.741,9.312 260.811,9.312 260.956 M337.143 260.956 C 337.143 261.081,336.919 261.116,336.614 261.039 C 336.295 260.959,336.085 260.997,336.085 261.134 C 336.085 261.260,335.951 261.311,335.789 261.249 C 335.626 261.186,335.429 261.238,335.351 261.365 C 335.273 261.491,335.120 261.539,335.012 261.472 C 334.903 261.405,334.815 261.457,334.815 261.587 C 334.815 261.717,334.730 261.771,334.625 261.707 C 334.521 261.642,334.381 261.732,334.315 261.906 C 334.248 262.080,334.045 262.222,333.864 262.222 C 333.682 262.222,333.132 262.643,332.640 263.157 C 331.546 264.300,331.165 264.762,331.314 264.762 C 331.377 264.762,331.231 264.960,330.989 265.202 C 330.747 265.443,330.601 265.777,330.665 265.942 C 330.728 266.108,330.682 266.243,330.561 266.243 C 330.441 266.243,330.400 266.426,330.471 266.649 C 330.541 266.872,330.514 267.107,330.411 267.171 C 330.307 267.235,330.222 268.008,330.222 268.889 C 330.222 269.770,330.307 270.543,330.411 270.607 C 330.514 270.671,330.541 270.906,330.471 271.129 C 330.400 271.352,330.441 271.534,330.561 271.534 C 330.682 271.534,330.728 271.670,330.665 271.835 C 330.601 272.001,330.739 272.326,330.971 272.559 C 331.203 272.791,331.338 273.036,331.270 273.104 C 331.202 273.172,331.263 273.228,331.406 273.228 C 331.548 273.228,331.606 273.323,331.534 273.439 C 331.462 273.556,331.484 273.651,331.582 273.651 C 331.680 273.651,331.929 273.937,332.136 274.286 C 332.342 274.635,332.638 274.921,332.794 274.921 C 332.949 274.921,333.131 275.063,333.198 275.238 C 333.265 275.413,333.517 275.556,333.757 275.556 C 333.997 275.556,334.248 275.698,334.315 275.872 C 334.381 276.046,334.521 276.135,334.625 276.071 C 334.730 276.007,334.815 276.055,334.815 276.178 C 334.815 276.301,334.886 276.387,334.974 276.368 C 335.061 276.349,335.407 276.447,335.742 276.585 C 336.078 276.723,336.530 276.780,336.748 276.711 C 336.965 276.642,337.143 276.687,337.143 276.811 C 337.143 276.970,344.835 277.037,363.069 277.037 C 381.303 277.037,388.995 276.970,388.995 276.811 C 388.995 276.683,389.174 276.642,389.408 276.717 C 389.638 276.789,390.045 276.701,390.325 276.518 C 390.601 276.337,390.891 276.253,390.969 276.331 C 391.047 276.409,391.111 276.356,391.111 276.213 C 391.111 276.071,391.219 276.021,391.352 276.103 C 391.485 276.185,391.776 276.026,392.005 275.745 C 392.232 275.466,392.347 275.373,392.260 275.537 C 392.173 275.701,392.611 275.320,393.232 274.690 C 393.853 274.060,394.344 273.471,394.322 273.380 C 394.300 273.290,394.425 273.161,394.600 273.094 C 394.775 273.026,394.866 272.886,394.801 272.782 C 394.737 272.678,394.790 272.593,394.921 272.593 C 395.051 272.593,395.098 272.497,395.026 272.381 C 394.955 272.265,394.994 272.169,395.113 272.169 C 395.233 272.169,395.270 272.011,395.195 271.817 C 395.110 271.594,395.144 271.517,395.288 271.606 C 395.446 271.704,395.516 270.875,395.516 268.889 C 395.516 266.903,395.446 266.074,395.288 266.172 C 395.144 266.261,395.110 266.183,395.195 265.961 C 395.270 265.767,395.233 265.608,395.113 265.608 C 394.994 265.608,394.955 265.513,395.026 265.397 C 395.098 265.280,395.051 265.185,394.921 265.185 C 394.790 265.185,394.737 265.100,394.801 264.996 C 394.866 264.892,394.762 264.746,394.572 264.673 C 394.381 264.600,394.282 264.483,394.352 264.413 C 394.422 264.343,394.269 264.100,394.012 263.873 C 393.755 263.646,393.688 263.530,393.862 263.616 C 394.037 263.702,393.949 263.519,393.667 263.209 C 393.112 262.600,392.912 262.490,393.125 262.910 C 393.199 263.056,393.053 262.912,392.801 262.592 C 392.550 262.271,392.267 262.056,392.173 262.114 C 392.079 262.172,391.944 262.068,391.872 261.882 C 391.798 261.689,391.607 261.595,391.427 261.665 C 391.253 261.731,391.111 261.688,391.111 261.568 C 391.111 261.449,391.022 261.405,390.914 261.472 C 390.806 261.539,390.653 261.491,390.575 261.365 C 390.497 261.238,390.295 261.188,390.126 261.253 C 389.939 261.325,389.875 261.281,389.963 261.139 C 390.061 260.979,389.901 260.952,389.444 261.052 C 389.022 261.145,388.783 261.115,388.783 260.969 C 388.783 260.807,381.302 260.741,362.963 260.741 C 345.569 260.741,337.143 260.811,337.143 260.956 M97.897 298.042 L 98.519 298.730 97.831 298.109 C 97.452 297.767,97.143 297.457,97.143 297.421 C 97.143 297.257,97.317 297.401,97.897 298.042 " stroke="none" fill="#048bfb" fill-rule="evenodd"></path><path id="path2" d="M172.854 136.242 L 179.676 136.302 179.737 142.490 L 179.798 148.677 179.793 142.434 L 179.788 136.190 172.910 136.186 L 166.032 136.181 172.854 136.242 M221.746 136.243 C 223.638 136.278,226.733 136.278,228.624 136.243 C 230.516 136.208,228.968 136.179,225.185 136.179 C 221.402 136.179,219.854 136.208,221.746 136.243 M234.659 136.446 C 234.922 136.497,235.303 136.495,235.505 136.442 C 235.707 136.389,235.492 136.347,235.026 136.350 C 234.561 136.352,234.395 136.395,234.659 136.446 M249.630 140.455 C 251.980 142.710,252.907 143.499,252.304 142.732 C 251.685 141.945,251.051 141.381,249.848 140.549 C 249.611 140.386,249.513 140.344,249.630 140.455 M146.444 142.169 L 145.714 142.963 146.508 142.234 C 147.247 141.555,147.399 141.376,147.237 141.376 C 147.202 141.376,146.845 141.733,146.444 142.169 M145.121 143.757 C 144.547 144.533,144.160 145.202,144.478 144.868 C 144.871 144.455,145.840 143.069,145.736 143.069 C 145.678 143.069,145.401 143.378,145.121 143.757 M254.724 147.090 C 254.802 147.381,254.954 147.762,255.062 147.937 C 255.198 148.157,255.215 148.093,255.117 147.725 C 255.039 147.434,254.887 147.053,254.779 146.878 C 254.643 146.658,254.626 146.722,254.724 147.090 M231.852 149.630 C 232.085 149.730,232.418 149.812,232.593 149.812 C 232.793 149.812,232.754 149.744,232.487 149.630 C 232.254 149.530,231.921 149.448,231.746 149.448 C 231.546 149.448,231.585 149.515,231.852 149.630 M163.432 150.847 C 162.926 151.341,162.918 151.366,163.376 151.008 C 164.279 150.305,164.322 150.265,164.173 150.265 C 164.093 150.265,163.760 150.526,163.432 150.847 M256.134 153.228 C 256.134 153.635,256.177 153.802,256.231 153.598 C 256.284 153.394,256.284 153.061,256.231 152.857 C 256.177 152.653,256.134 152.820,256.134 153.228 M236.455 155.873 C 236.458 156.339,236.501 156.504,236.552 156.241 C 236.602 155.978,236.601 155.597,236.548 155.394 C 236.495 155.192,236.453 155.407,236.455 155.873 M256.370 157.249 C 256.370 158.238,256.407 158.643,256.451 158.148 C 256.496 157.653,256.496 156.844,256.451 156.349 C 256.407 155.854,256.370 156.259,256.370 157.249 M236.481 163.492 C 236.482 164.772,236.517 165.269,236.559 164.595 C 236.601 163.922,236.600 162.874,236.558 162.267 C 236.515 161.661,236.481 162.212,236.481 163.492 M256.138 162.646 C 256.140 163.111,256.184 163.277,256.234 163.013 C 256.285 162.750,256.283 162.369,256.230 162.167 C 256.177 161.964,256.136 162.180,256.138 162.646 M161.751 169.524 C 161.751 170.048,161.792 170.262,161.842 170.000 C 161.893 169.738,161.893 169.310,161.842 169.048 C 161.792 168.786,161.751 169.000,161.751 169.524 M236.260 170.053 C 236.261 170.868,236.299 171.175,236.345 170.736 C 236.391 170.297,236.390 169.630,236.343 169.255 C 236.296 168.879,236.259 169.238,236.260 170.053 M161.993 177.989 C 161.993 180.143,162.024 181.024,162.062 179.947 C 162.101 178.870,162.101 177.108,162.062 176.032 C 162.024 174.955,161.993 175.836,161.993 177.989 M254.875 175.556 C 254.877 176.138,254.918 176.351,254.967 176.029 C 255.015 175.707,255.014 175.231,254.964 174.971 C 254.914 174.710,254.874 174.974,254.875 175.556 M256.296 184.405 C 256.296 184.441,256.606 184.751,256.984 185.093 L 257.672 185.714 257.050 185.026 C 256.471 184.385,256.296 184.241,256.296 184.405 M259.259 186.770 C 259.259 186.915,260.555 187.558,260.652 187.461 C 260.698 187.415,260.403 187.219,259.997 187.025 C 259.591 186.832,259.259 186.717,259.259 186.770 M134.709 188.360 C 134.442 188.474,134.403 188.542,134.603 188.542 C 134.778 188.542,135.111 188.460,135.344 188.360 C 135.611 188.245,135.650 188.178,135.450 188.178 C 135.275 188.178,134.942 188.260,134.709 188.360 M126.296 189.779 C 126.558 189.829,126.987 189.829,127.249 189.779 C 127.511 189.729,127.296 189.687,126.772 189.687 C 126.249 189.687,126.034 189.729,126.296 189.779 M271.061 189.779 C 271.324 189.830,271.705 189.828,271.907 189.775 C 272.110 189.722,271.894 189.681,271.429 189.683 C 270.963 189.685,270.797 189.729,271.061 189.779 M124.328 196.825 C 124.328 200.725,124.356 202.320,124.391 200.370 C 124.426 198.421,124.426 195.230,124.391 193.280 C 124.356 191.331,124.328 192.926,124.328 196.825 M239.788 191.852 C 240.421 192.492,240.986 193.016,241.044 193.016 C 241.102 193.016,240.632 192.492,240.000 191.852 C 239.368 191.212,238.803 190.688,238.745 190.688 C 238.686 190.688,239.156 191.212,239.788 191.852 M240.352 201.284 C 239.814 201.757,239.171 202.448,238.922 202.818 C 238.558 203.363,238.611 203.333,239.200 202.663 C 239.600 202.206,240.302 201.517,240.758 201.131 C 241.214 200.745,241.529 200.428,241.458 200.426 C 241.387 200.425,240.889 200.811,240.352 201.284 M158.304 202.011 C 159.052 202.825,159.705 203.540,159.755 203.598 C 159.805 203.656,159.745 203.513,159.621 203.280 C 159.497 203.048,158.844 202.333,158.170 201.693 L 156.943 200.529 158.304 202.011 M160.147 204.548 C 160.341 204.954,160.537 205.248,160.583 205.202 C 160.679 205.105,160.037 203.810,159.892 203.810 C 159.839 203.810,159.954 204.142,160.147 204.548 M257.451 208.207 C 257.097 208.524,256.624 209.021,256.400 209.312 C 256.175 209.603,256.489 209.369,257.096 208.791 C 258.098 207.839,258.306 207.608,258.148 207.625 C 258.119 207.628,257.805 207.890,257.451 208.207 M140.847 208.677 C 141.301 209.143,141.721 209.524,141.779 209.524 C 141.837 209.524,141.513 209.143,141.058 208.677 C 140.604 208.212,140.184 207.831,140.126 207.831 C 140.068 207.831,140.392 208.212,140.847 208.677 M161.993 215.661 C 161.993 217.815,162.024 218.696,162.062 217.619 C 162.101 216.542,162.101 214.780,162.062 213.704 C 162.024 212.627,161.993 213.508,161.993 215.661 M254.875 218.095 C 254.877 218.677,254.918 218.890,254.967 218.569 C 255.015 218.247,255.014 217.771,254.964 217.510 C 254.914 217.250,254.874 217.513,254.875 218.095 M236.262 223.704 C 236.262 224.577,236.299 224.934,236.345 224.497 C 236.390 224.061,236.390 223.347,236.345 222.910 C 236.299 222.474,236.262 222.831,236.262 223.704 M161.746 224.233 C 161.749 224.698,161.792 224.864,161.843 224.601 C 161.893 224.337,161.892 223.956,161.839 223.754 C 161.786 223.552,161.744 223.767,161.746 224.233 M236.481 230.159 C 236.482 231.439,236.517 231.936,236.559 231.262 C 236.601 230.589,236.600 229.541,236.558 228.934 C 236.515 228.327,236.481 228.878,236.481 230.159 M256.138 231.005 C 256.140 231.471,256.184 231.636,256.234 231.373 C 256.285 231.110,256.283 230.729,256.230 230.527 C 256.177 230.324,256.136 230.540,256.138 231.005 M256.370 236.402 C 256.370 237.392,256.407 237.796,256.451 237.302 C 256.496 236.807,256.496 235.997,256.451 235.503 C 256.407 235.008,256.370 235.413,256.370 236.402 M236.451 237.884 C 236.451 238.291,236.495 238.458,236.548 238.254 C 236.601 238.050,236.601 237.717,236.548 237.513 C 236.495 237.310,236.451 237.476,236.451 237.884 M234.392 242.893 C 233.926 243.310,233.735 243.553,233.968 243.433 C 234.361 243.230,235.529 242.105,235.328 242.125 C 235.279 242.130,234.857 242.476,234.392 242.893 M169.685 244.806 C 169.948 244.856,170.329 244.854,170.532 244.801 C 170.734 244.749,170.519 244.707,170.053 244.709 C 169.587 244.712,169.422 244.755,169.685 244.806 M227.674 244.806 C 227.938 244.856,228.319 244.854,228.521 244.801 C 228.723 244.749,228.508 244.707,228.042 244.709 C 227.577 244.712,227.411 244.755,227.674 244.806 M179.776 251.217 C 179.776 254.767,179.805 256.220,179.841 254.444 C 179.876 252.669,179.876 249.765,179.841 247.989 C 179.805 246.214,179.776 247.667,179.776 251.217 M143.295 246.667 C 143.295 246.783,143.432 247.116,143.598 247.407 C 143.764 247.698,143.900 247.841,143.900 247.725 C 143.900 247.608,143.764 247.275,143.598 246.984 C 143.432 246.693,143.295 246.550,143.295 246.667 M146.561 251.640 C 147.252 252.339,147.865 252.910,147.923 252.910 C 147.981 252.910,147.464 252.339,146.772 251.640 C 146.081 250.942,145.468 250.370,145.410 250.370 C 145.352 250.370,145.870 250.942,146.561 251.640 M251.521 251.693 L 250.899 252.381 251.587 251.759 C 252.228 251.180,252.372 251.005,252.209 251.005 C 252.172 251.005,251.863 251.315,251.521 251.693 " stroke="none" fill="#9ecaf1" fill-rule="evenodd"></path><path id="path3" d="M165.132 136.231 C 165.336 136.284,165.669 136.284,165.873 136.231 C 166.077 136.177,165.910 136.134,165.503 136.134 C 165.095 136.134,164.929 136.177,165.132 136.231 M232.222 136.231 C 232.426 136.284,232.759 136.284,232.963 136.231 C 233.167 136.177,233.000 136.134,232.593 136.134 C 232.185 136.134,232.019 136.177,232.222 136.231 M172.436 148.933 C 172.700 148.983,173.081 148.981,173.283 148.928 C 173.485 148.876,173.270 148.834,172.804 148.836 C 172.339 148.839,172.173 148.882,172.436 148.933 M225.026 148.929 C 225.230 148.982,225.563 148.982,225.767 148.929 C 225.971 148.876,225.804 148.832,225.397 148.832 C 224.989 148.832,224.823 148.876,225.026 148.929 M141.848 153.651 C 141.848 154.058,141.892 154.225,141.945 154.021 C 141.998 153.817,141.998 153.484,141.945 153.280 C 141.892 153.077,141.848 153.243,141.848 153.651 M236.482 158.942 C 236.482 160.280,236.517 160.828,236.559 160.159 C 236.601 159.489,236.601 158.394,236.559 157.725 C 236.517 157.056,236.482 157.603,236.482 158.942 M256.354 159.788 C 256.354 160.312,256.395 160.526,256.446 160.265 C 256.496 160.003,256.496 159.574,256.446 159.312 C 256.395 159.050,256.354 159.265,256.354 159.788 M161.958 173.439 C 161.960 173.905,162.004 174.070,162.054 173.807 C 162.105 173.544,162.103 173.163,162.050 172.960 C 161.997 172.758,161.956 172.974,161.958 173.439 M236.062 178.307 C 236.063 179.937,236.096 180.575,236.136 179.726 C 236.176 178.877,236.176 177.544,236.136 176.763 C 236.095 175.983,236.062 176.677,236.062 178.307 M254.868 177.249 C 254.871 177.714,254.914 177.880,254.964 177.617 C 255.015 177.353,255.013 176.972,254.960 176.770 C 254.907 176.568,254.866 176.783,254.868 177.249 M143.145 178.624 C 143.145 179.730,143.181 180.183,143.224 179.630 C 143.268 179.077,143.268 178.172,143.224 177.619 C 143.181 177.066,143.145 177.519,143.145 178.624 M236.063 215.450 C 236.063 217.138,236.096 217.828,236.136 216.984 C 236.176 216.140,236.176 214.759,236.136 213.915 C 236.096 213.071,236.063 213.762,236.063 215.450 M143.145 215.238 C 143.145 216.344,143.181 216.796,143.224 216.243 C 143.268 215.690,143.268 214.786,143.224 214.233 C 143.181 213.680,143.145 214.132,143.145 215.238 M254.868 216.402 C 254.871 216.868,254.914 217.033,254.964 216.770 C 255.015 216.507,255.013 216.126,254.960 215.923 C 254.907 215.721,254.866 215.937,254.868 216.402 M161.958 220.212 C 161.960 220.677,162.004 220.843,162.054 220.580 C 162.105 220.316,162.103 219.935,162.050 219.733 C 161.997 219.531,161.956 219.746,161.958 220.212 M161.531 230.265 C 161.531 230.672,161.574 230.839,161.627 230.635 C 161.681 230.431,161.681 230.098,161.627 229.894 C 161.574 229.690,161.531 229.857,161.531 230.265 M236.483 234.815 C 236.483 236.212,236.518 236.756,236.559 236.023 C 236.600 235.291,236.600 234.149,236.558 233.484 C 236.516 232.819,236.482 233.418,236.483 234.815 M256.350 233.968 C 256.352 234.434,256.395 234.599,256.446 234.336 C 256.497 234.073,256.495 233.692,256.442 233.490 C 256.389 233.287,256.347 233.503,256.350 233.968 " stroke="none" fill="#61a4df" fill-rule="evenodd"></path><path id="path4" d="" stroke="none" fill="#3194e3" fill-rule="evenodd"></path><path id="path5" d="M218.302 142.487 L 218.307 148.889 221.058 148.898 L 223.810 148.907 221.114 148.839 L 218.419 148.771 218.358 142.428 L 218.297 136.085 218.302 142.487 M175.714 148.940 C 176.500 148.981,177.786 148.981,178.571 148.940 C 179.357 148.899,178.714 148.866,177.143 148.866 C 175.571 148.866,174.929 148.899,175.714 148.940 M141.664 157.249 C 141.664 158.354,141.699 158.807,141.743 158.254 C 141.786 157.701,141.786 156.796,141.743 156.243 C 141.699 155.690,141.664 156.143,141.664 157.249 M161.564 159.788 C 161.564 161.360,161.598 162.003,161.638 161.217 C 161.679 160.431,161.679 159.146,161.638 158.360 C 161.598 157.574,161.564 158.217,161.564 159.788 M236.036 173.757 C 236.036 174.280,236.078 174.495,236.128 174.233 C 236.179 173.971,236.179 173.542,236.128 173.280 C 236.078 173.019,236.036 173.233,236.036 173.757 M273.489 189.763 C 273.827 189.862,273.862 190.434,273.917 196.787 L 273.977 203.704 273.973 196.722 C 273.968 189.898,273.959 189.740,273.545 189.698 C 273.221 189.664,273.208 189.680,273.489 189.763 M236.039 220.000 C 236.041 220.582,236.082 220.795,236.131 220.473 C 236.179 220.152,236.178 219.675,236.128 219.415 C 236.078 219.155,236.038 219.418,236.039 220.000 M161.551 232.487 C 161.552 233.302,161.590 233.609,161.636 233.170 C 161.682 232.731,161.681 232.064,161.634 231.688 C 161.587 231.313,161.550 231.672,161.551 232.487 M161.551 235.450 C 161.552 236.265,161.590 236.572,161.636 236.133 C 161.682 235.694,161.681 235.027,161.634 234.651 C 161.587 234.276,161.550 234.635,161.551 235.450 M141.662 236.508 C 141.662 237.556,141.698 238.011,141.742 237.520 C 141.786 237.028,141.787 236.171,141.743 235.615 C 141.699 235.058,141.663 235.460,141.662 236.508 M218.295 251.217 C 218.295 254.767,218.324 256.220,218.359 254.444 C 218.395 252.669,218.395 249.765,218.359 247.989 C 218.324 246.214,218.295 247.667,218.295 251.217 " stroke="none" fill="#2c8adc" fill-rule="evenodd"></path><path id="path6" d="M300.212 95.450 C 300.785 96.032,301.302 96.508,301.360 96.508 C 301.418 96.508,300.997 96.032,300.423 95.450 C 299.850 94.868,299.333 94.392,299.275 94.392 C 299.217 94.392,299.638 94.868,300.212 95.450 M174.921 244.798 C 177.491 244.952,180.059 244.960,179.968 244.815 C 179.914 244.728,178.518 244.674,176.866 244.695 C 175.214 244.717,174.339 244.763,174.921 244.798 M219.956 244.813 C 220.746 244.854,221.985 244.854,222.707 244.813 C 223.430 244.771,222.783 244.738,221.270 244.738 C 219.757 244.739,219.165 244.772,219.956 244.813 M393.216 274.656 L 392.487 275.450 393.280 274.720 C 393.717 274.319,394.074 273.962,394.074 273.927 C 394.074 273.765,393.895 273.917,393.216 274.656 M97.672 297.989 C 98.481 298.804,99.190 299.471,99.248 299.471 C 99.306 299.471,98.692 298.804,97.884 297.989 C 97.075 297.175,96.366 296.508,96.308 296.508 C 96.249 296.508,96.863 297.175,97.672 297.989 M299.352 298.889 L 298.730 299.577 299.418 298.955 C 300.059 298.376,300.203 298.201,300.040 298.201 C 300.003 298.201,299.694 298.511,299.352 298.889 " stroke="none" fill="#148bf3" fill-rule="evenodd"></path><path id="path7" d="M141.636 234.074 C 141.636 234.481,141.680 234.648,141.733 234.444 C 141.786 234.241,141.786 233.907,141.733 233.704 C 141.680 233.500,141.636 233.667,141.636 234.074 " stroke="none" fill="#1784e2" fill-rule="evenodd"></path><path id="path8" d="M251.521 251.905 L 250.899 252.593 251.587 251.971 C 252.228 251.392,252.372 251.217,252.209 251.217 C 252.172 251.217,251.863 251.526,251.521 251.905 M169.696 257.725 C 171.595 257.760,174.642 257.760,176.468 257.724 C 178.294 257.689,176.741 257.660,173.016 257.661 C 169.291 257.661,167.797 257.689,169.696 257.725 M221.759 257.725 C 223.658 257.760,226.706 257.760,228.532 257.724 C 230.358 257.689,228.804 257.660,225.079 257.661 C 221.354 257.661,219.860 257.689,221.759 257.725 " stroke="none" fill="#0c84ec" fill-rule="evenodd"></path></g></svg>